<svg width="201" height="201" viewBox="0 0 201 201" fill="none" xmlns="http://www.w3.org/2000/svg">
<path d="M92.858 169.311L105.413 155.412L65.7624 142.015L54.4642 155.913L92.858 169.311Z" fill="#C6FF00" stroke="#263238" stroke-miterlimit="10" stroke-linecap="round" stroke-linejoin="round"/>
<path d="M91.6616 165.614L100.09 156.521L69.9267 145.875L61.4988 155.634L91.6616 165.614Z" fill="#263238" stroke="#263238" stroke-miterlimit="10" stroke-linecap="round" stroke-linejoin="round"/>
<path d="M87.2341 103.796C87.2341 103.796 81.0099 105.445 78.3852 107.92C75.7606 110.395 74.561 114.969 74.561 114.969C74.561 114.969 71.0367 117.969 69.3869 118.869C67.7371 119.768 65.0376 121.493 63.6877 125.543C62.3378 129.592 60.688 138.741 60.688 138.741L64.8873 140.69C64.8873 140.69 64.9625 138.291 68.7119 134.616C72.4614 130.942 74.7861 124.718 75.086 124.568C75.3859 124.418 81.9847 120.069 81.9847 120.069C81.9847 120.069 87.0841 123.593 92.858 124.568C98.632 125.543 105.006 124.493 105.006 124.493L103.206 130.042C103.206 130.042 99.0818 131.842 98.0322 134.017C96.9826 136.192 92.0331 144.44 92.0331 144.44L95.5575 147.29C95.5575 147.29 99.2318 144.44 104.406 141.816C109.58 139.191 110.855 137.317 112.355 134.242C113.855 131.168 115.729 125.319 115.804 124.794C115.879 124.269 117.379 122.919 117.604 119.694C117.829 116.47 117.829 116.47 117.829 116.47L125.703 109.421C125.703 109.421 131.927 106.946 137.101 101.247C142.275 95.5478 143.1 92.7732 143.625 87.6738C144.15 82.5744 146.25 62.4029 146.324 62.1026C146.4 61.8027 147.074 60.3028 147.974 60.1529C148.874 60.0029 153.823 64.3522 154.498 64.802C155.173 65.2518 156.523 65.477 156.673 64.0523C156.823 62.6276 155.623 59.1029 151.799 55.2786C147.975 51.454 145.2 50.8542 144.3 51.8291C143.4 52.8039 144 54.9036 143.4 57.9781C142.801 61.0526 139.051 72.151 137.176 77.3999C135.302 82.6492 135.901 89.773 135.901 89.773C135.901 89.773 133.352 90.6727 131.552 92.0226C129.752 93.3726 126.978 95.2471 126.978 95.2471L126.228 94.872C126.228 94.872 130.427 90.6727 131.702 88.2732C132.977 85.8736 133.352 85.7237 132.677 84.299C132.002 82.8743 126.528 75.9752 124.128 72.9007C121.729 69.8262 118.804 64.6521 118.205 63.1522C117.605 61.6523 117.68 60.1529 118.129 59.1029C118.579 58.0528 122.778 55.9532 122.854 52.7287C122.928 49.5043 120.829 50.404 118.879 51.0789C116.929 51.7539 111.68 56.8533 110.481 60.0777C109.281 63.3021 110.331 64.3522 112.43 66.3019C114.53 68.2516 117.079 72.2261 118.429 75.9752C119.779 79.7246 121.504 83.3242 124.278 84.299C124.278 84.299 119.854 86.3987 116.929 88.4983C114.005 90.5979 112.58 91.5728 112.58 91.5728C112.58 91.5728 108.606 92.6976 107.106 94.6473C105.606 96.597 105.006 97.8717 105.006 97.8717C105.006 97.8717 91.4333 100.196 87.2341 103.796Z" fill="white"/>
<mask id="mask0_344_58" style="mask-type:luminance" maskUnits="userSpaceOnUse" x="60" y="50" width="97" height="98">
<path d="M87.2341 103.796C87.2341 103.796 81.0099 105.445 78.3852 107.92C75.7606 110.395 74.561 114.969 74.561 114.969C74.561 114.969 71.0367 117.969 69.3869 118.869C67.7371 119.768 65.0376 121.493 63.6877 125.543C62.3378 129.592 60.688 138.741 60.688 138.741L64.8873 140.69C64.8873 140.69 64.9625 138.291 68.7119 134.616C72.4614 130.942 74.7861 124.718 75.086 124.568C75.3859 124.418 81.9847 120.069 81.9847 120.069C81.9847 120.069 87.0841 123.593 92.858 124.568C98.632 125.543 105.006 124.493 105.006 124.493L103.206 130.042C103.206 130.042 99.0818 131.842 98.0322 134.017C96.9826 136.192 92.0331 144.44 92.0331 144.44L95.5575 147.29C95.5575 147.29 99.2318 144.44 104.406 141.816C109.58 139.191 110.855 137.317 112.355 134.242C113.855 131.168 115.729 125.319 115.804 124.794C115.879 124.269 117.379 122.919 117.604 119.694C117.829 116.47 117.829 116.47 117.829 116.47L125.703 109.421C125.703 109.421 131.927 106.946 137.101 101.247C142.275 95.5478 143.1 92.7732 143.625 87.6738C144.15 82.5744 146.25 62.4029 146.324 62.1026C146.4 61.8027 147.074 60.3028 147.974 60.1529C148.874 60.0029 153.823 64.3522 154.498 64.802C155.173 65.2518 156.523 65.477 156.673 64.0523C156.823 62.6276 155.623 59.1029 151.799 55.2786C147.975 51.454 145.2 50.8542 144.3 51.8291C143.4 52.8039 144 54.9036 143.4 57.9781C142.801 61.0526 139.051 72.151 137.176 77.3999C135.302 82.6492 135.901 89.773 135.901 89.773C135.901 89.773 133.352 90.6727 131.552 92.0226C129.752 93.3726 126.978 95.2471 126.978 95.2471L126.228 94.872C126.228 94.872 130.427 90.6727 131.702 88.2732C132.977 85.8736 133.352 85.7237 132.677 84.299C132.002 82.8743 126.528 75.9752 124.128 72.9007C121.729 69.8262 118.804 64.6521 118.205 63.1522C117.605 61.6523 117.68 60.1529 118.129 59.1029C118.579 58.0528 122.778 55.9532 122.854 52.7287C122.928 49.5043 120.829 50.404 118.879 51.0789C116.929 51.7539 111.68 56.8533 110.481 60.0777C109.281 63.3021 110.331 64.3522 112.43 66.3019C114.53 68.2516 117.079 72.2261 118.429 75.9752C119.779 79.7246 121.504 83.3242 124.278 84.299C124.278 84.299 119.854 86.3987 116.929 88.4983C114.005 90.5979 112.58 91.5728 112.58 91.5728C112.58 91.5728 108.606 92.6976 107.106 94.6473C105.606 96.597 105.006 97.8717 105.006 97.8717C105.006 97.8717 91.4333 100.196 87.2341 103.796Z" fill="white"/>
</mask>
<g mask="url(#mask0_344_58)">
<path opacity="0.2" d="M123.113 110.909L116.707 113.878C116.707 113.878 117.019 118.722 115.301 121.222C113.582 123.722 112.957 124.503 112.957 124.503C112.957 124.503 112.801 128.254 111.707 130.597C110.613 132.941 108.894 133.722 108.894 133.722C108.894 133.722 109.051 136.379 106.863 138.41C104.675 140.442 99.2064 143.723 95.7689 145.91C95.4099 146.139 95.0699 146.381 94.7418 146.629L95.5583 147.289C95.5583 147.289 99.2326 144.439 104.407 141.815C109.581 139.19 110.856 137.316 112.355 134.241C113.855 131.167 115.73 125.317 115.805 124.792C115.88 124.267 117.38 122.918 117.605 119.693C117.83 116.469 117.83 116.469 117.83 116.469L123.588 111.314L123.113 110.909Z" fill="black"/>
</g>
<mask id="mask1_344_58" style="mask-type:luminance" maskUnits="userSpaceOnUse" x="60" y="50" width="97" height="98">
<path d="M87.2341 103.796C87.2341 103.796 81.0099 105.445 78.3852 107.92C75.7606 110.395 74.561 114.969 74.561 114.969C74.561 114.969 71.0367 117.969 69.3869 118.869C67.7371 119.768 65.0376 121.493 63.6877 125.543C62.3378 129.592 60.688 138.741 60.688 138.741L64.8873 140.69C64.8873 140.69 64.9625 138.291 68.7119 134.616C72.4614 130.942 74.7861 124.718 75.086 124.568C75.3859 124.418 81.9847 120.069 81.9847 120.069C81.9847 120.069 87.0841 123.593 92.858 124.568C98.632 125.543 105.006 124.493 105.006 124.493L103.206 130.042C103.206 130.042 99.0818 131.842 98.0322 134.017C96.9826 136.192 92.0331 144.44 92.0331 144.44L95.5575 147.29C95.5575 147.29 99.2318 144.44 104.406 141.816C109.58 139.191 110.855 137.317 112.355 134.242C113.855 131.168 115.729 125.319 115.804 124.794C115.879 124.269 117.379 122.919 117.604 119.694C117.829 116.47 117.829 116.47 117.829 116.47L125.703 109.421C125.703 109.421 131.927 106.946 137.101 101.247C142.275 95.5478 143.1 92.7732 143.625 87.6738C144.15 82.5744 146.25 62.4029 146.324 62.1026C146.4 61.8027 147.074 60.3028 147.974 60.1529C148.874 60.0029 153.823 64.3522 154.498 64.802C155.173 65.2518 156.523 65.477 156.673 64.0523C156.823 62.6276 155.623 59.1029 151.799 55.2786C147.975 51.454 145.2 50.8542 144.3 51.8291C143.4 52.8039 144 54.9036 143.4 57.9781C142.801 61.0526 139.051 72.151 137.176 77.3999C135.302 82.6492 135.901 89.773 135.901 89.773C135.901 89.773 133.352 90.6727 131.552 92.0226C129.752 93.3726 126.978 95.2471 126.978 95.2471L126.228 94.872C126.228 94.872 130.427 90.6727 131.702 88.2732C132.977 85.8736 133.352 85.7237 132.677 84.299C132.002 82.8743 126.528 75.9752 124.128 72.9007C121.729 69.8262 118.804 64.6521 118.205 63.1522C117.605 61.6523 117.68 60.1529 118.129 59.1029C118.579 58.0528 122.778 55.9532 122.854 52.7287C122.928 49.5043 120.829 50.404 118.879 51.0789C116.929 51.7539 111.68 56.8533 110.481 60.0777C109.281 63.3021 110.331 64.3522 112.43 66.3019C114.53 68.2516 117.079 72.2261 118.429 75.9752C119.779 79.7246 121.504 83.3242 124.278 84.299C124.278 84.299 119.854 86.3987 116.929 88.4983C114.005 90.5979 112.58 91.5728 112.58 91.5728C112.58 91.5728 108.606 92.6976 107.106 94.6473C105.606 96.597 105.006 97.8717 105.006 97.8717C105.006 97.8717 91.4333 100.196 87.2341 103.796Z" fill="white"/>
</mask>
<g mask="url(#mask1_344_58)">
<path opacity="0.2" d="M92.8581 124.567C98.0913 125.451 103.817 124.671 104.844 124.517C105.174 123.656 105.386 122.686 104.831 122.316C103.894 121.691 104.206 119.972 104.206 119.972C104.206 119.972 103.425 121.691 97.1747 121.691C90.9244 121.691 82.4865 116.378 82.4865 116.378C82.4865 116.378 81.8614 118.253 80.1428 118.878C78.4239 119.503 73.7361 122.159 73.7361 122.159C73.7361 122.159 73.5798 126.535 70.4546 129.191C67.3295 131.847 63.7291 138.048 63.7291 138.048L63.1832 139.898L64.8873 140.69C64.8873 140.69 64.9625 138.29 68.7119 134.615C72.4614 130.941 74.7862 124.717 75.086 124.567C75.3859 124.417 81.9852 120.068 81.9852 120.068C81.9852 120.068 87.0841 123.592 92.8581 124.567Z" fill="black"/>
</g>
<path d="M87.2341 103.796C87.2341 103.796 81.0099 105.445 78.3852 107.92C75.7606 110.395 74.561 114.969 74.561 114.969C74.561 114.969 71.0367 117.969 69.3869 118.869C67.7371 119.768 65.0376 121.493 63.6877 125.543C62.3378 129.592 60.688 138.741 60.688 138.741L64.8873 140.69C64.8873 140.69 64.9625 138.291 68.7119 134.616C72.4614 130.942 74.7861 124.718 75.086 124.568C75.3859 124.418 81.9847 120.069 81.9847 120.069C81.9847 120.069 87.0841 123.593 92.858 124.568C98.632 125.543 105.006 124.493 105.006 124.493L103.206 130.042C103.206 130.042 99.0818 131.842 98.0322 134.017C96.9826 136.192 92.0331 144.44 92.0331 144.44L95.5575 147.29C95.5575 147.29 99.2317 144.44 104.406 141.816C109.58 139.191 110.855 137.317 112.355 134.242C113.855 131.168 115.729 125.319 115.804 124.794C115.879 124.269 117.379 122.919 117.604 119.694C117.829 116.47 117.829 116.47 117.829 116.47L125.703 109.421C125.703 109.421 131.927 106.946 137.101 101.247C142.275 95.5478 143.1 92.7732 143.625 87.6738C144.15 82.5744 146.25 62.4029 146.324 62.1026C146.4 61.8027 147.074 60.3028 147.974 60.1529C148.874 60.0029 153.823 64.3522 154.498 64.802C155.173 65.2518 156.523 65.477 156.673 64.0523C156.823 62.6276 155.623 59.1029 151.799 55.2786C147.975 51.454 145.2 50.8542 144.3 51.8291C143.4 52.8039 144 54.9036 143.4 57.9781C142.801 61.0526 139.051 72.151 137.176 77.3999C135.302 82.6492 135.901 89.773 135.901 89.773C135.901 89.773 133.352 90.6727 131.552 92.0226C129.752 93.3726 126.978 95.2471 126.978 95.2471L126.228 94.872C126.228 94.872 130.427 90.6727 131.702 88.2732C132.977 85.8736 133.352 85.7237 132.677 84.299C132.002 82.8743 126.528 75.9752 124.128 72.9007C121.729 69.8262 118.804 64.6521 118.205 63.1522C117.605 61.6523 117.68 60.1529 118.129 59.1029C118.579 58.0528 122.778 55.9532 122.854 52.7287C122.928 49.5043 120.829 50.404 118.879 51.0789C116.929 51.7539 111.68 56.8533 110.481 60.0777C109.281 63.3021 110.331 64.3522 112.43 66.3019C114.53 68.2516 117.079 72.2261 118.429 75.9752C119.779 79.7246 121.504 83.3242 124.278 84.299C124.278 84.299 119.854 86.3987 116.929 88.4983C114.005 90.5979 112.58 91.5728 112.58 91.5728C112.58 91.5728 108.606 92.6976 107.106 94.6473C105.606 96.597 105.006 97.8717 105.006 97.8717C105.006 97.8717 91.4334 100.196 87.2341 103.796Z" stroke="#263238" stroke-miterlimit="10" stroke-linecap="round" stroke-linejoin="round"/>
<path d="M109.73 95.2471C108.784 95.2471 107.614 95.3347 106.513 95.4481C105.45 96.9359 105.006 97.8717 105.006 97.8717C105.006 97.8717 91.4334 100.196 87.2337 103.796C87.2337 103.796 81.0095 105.446 78.3849 107.921C75.7602 110.395 74.5606 114.97 74.5606 114.97C74.5606 114.97 72.6929 116.558 71.0399 117.77C72.3404 117.677 74.5224 117.731 75.6854 118.944C76.8609 120.171 76.7821 122.336 76.6128 123.592C78.6486 122.267 81.9844 120.069 81.9844 120.069C81.9844 120.069 87.0837 123.593 92.8577 124.568C98.6316 125.543 105.006 124.493 105.006 124.493L104.716 125.387C105.797 124.578 108.135 123.392 111.529 124.718C113.396 125.448 114.33 126.733 114.773 128.097C115.355 126.398 115.769 125.034 115.804 124.793C115.879 124.268 117.378 122.919 117.604 119.694C117.829 116.469 117.829 116.469 117.829 116.469L124.463 110.53C124.604 109.089 124.422 106.868 123.078 103.796C120.454 97.7966 112.055 95.2471 109.73 95.2471Z" fill="#C6FF00"/>
<mask id="mask2_344_58" style="mask-type:luminance" maskUnits="userSpaceOnUse" x="71" y="95" width="54" height="34">
<path d="M109.73 95.2471C108.784 95.2471 107.614 95.3347 106.513 95.4481C105.45 96.9359 105.006 97.8717 105.006 97.8717C105.006 97.8717 91.4334 100.196 87.2337 103.796C87.2337 103.796 81.0095 105.446 78.3849 107.921C75.7602 110.395 74.5606 114.97 74.5606 114.97C74.5606 114.97 72.6929 116.558 71.0399 117.77C72.3404 117.677 74.5224 117.731 75.6854 118.944C76.8609 120.171 76.7821 122.336 76.6128 123.592C78.6486 122.267 81.9844 120.069 81.9844 120.069C81.9844 120.069 87.0837 123.593 92.8577 124.568C98.6316 125.543 105.006 124.493 105.006 124.493L104.716 125.387C105.797 124.578 108.135 123.392 111.529 124.718C113.396 125.448 114.33 126.733 114.773 128.097C115.355 126.398 115.769 125.034 115.804 124.793C115.879 124.268 117.378 122.919 117.604 119.694C117.829 116.469 117.829 116.469 117.829 116.469L124.463 110.53C124.604 109.089 124.422 106.868 123.078 103.796C120.454 97.7966 112.055 95.2471 109.73 95.2471Z" fill="white"/>
</mask>
<g mask="url(#mask2_344_58)">
<path opacity="0.2" d="M92.8581 124.567C98.0913 125.451 103.817 124.671 104.844 124.517C105.174 123.656 105.386 122.686 104.831 122.316C103.894 121.691 104.206 119.972 104.206 119.972C104.206 119.972 103.425 121.691 97.1747 121.691C90.9244 121.691 82.4865 116.378 82.4865 116.378C82.4865 116.378 81.8614 118.253 80.1428 118.878C78.4239 119.503 73.7361 122.159 73.7361 122.159C73.7361 122.159 73.5798 126.535 70.4546 129.191C67.3295 131.847 63.7291 138.048 63.7291 138.048L63.1832 139.898L64.8873 140.69C64.8873 140.69 64.9625 138.29 68.7119 134.615C72.4614 130.941 74.7862 124.717 75.086 124.567C75.3859 124.417 81.9852 120.068 81.9852 120.068C81.9852 120.068 87.0841 123.592 92.8581 124.567Z" fill="black"/>
</g>
<mask id="mask3_344_58" style="mask-type:luminance" maskUnits="userSpaceOnUse" x="71" y="95" width="54" height="34">
<path d="M109.73 95.2471C108.784 95.2471 107.614 95.3347 106.513 95.4481C105.45 96.9359 105.006 97.8717 105.006 97.8717C105.006 97.8717 91.4334 100.196 87.2337 103.796C87.2337 103.796 81.0095 105.446 78.3849 107.921C75.7602 110.395 74.5606 114.97 74.5606 114.97C74.5606 114.97 72.6929 116.558 71.0399 117.77C72.3404 117.677 74.5224 117.731 75.6854 118.944C76.8609 120.171 76.7821 122.336 76.6128 123.592C78.6486 122.267 81.9844 120.069 81.9844 120.069C81.9844 120.069 87.0837 123.593 92.8577 124.568C98.6316 125.543 105.006 124.493 105.006 124.493L104.716 125.387C105.797 124.578 108.135 123.392 111.529 124.718C113.396 125.448 114.33 126.733 114.773 128.097C115.355 126.398 115.769 125.034 115.804 124.793C115.879 124.268 117.378 122.919 117.604 119.694C117.829 116.469 117.829 116.469 117.829 116.469L124.463 110.53C124.604 109.089 124.422 106.868 123.078 103.796C120.454 97.7966 112.055 95.2471 109.73 95.2471Z" fill="white"/>
</mask>
<g mask="url(#mask3_344_58)">
<path opacity="0.2" d="M123.113 110.909L116.707 113.878C116.707 113.878 117.019 118.722 115.301 121.222C113.582 123.722 112.957 124.503 112.957 124.503C112.957 124.503 112.801 128.254 111.707 130.597C110.613 132.941 108.894 133.722 108.894 133.722C108.894 133.722 109.051 136.379 106.863 138.41C104.675 140.442 99.2064 143.723 95.7689 145.91C95.4099 146.139 95.0699 146.381 94.7418 146.629L95.5583 147.289C95.5583 147.289 99.2326 144.439 104.407 141.815C109.581 139.19 110.856 137.316 112.355 134.241C113.855 131.167 115.73 125.317 115.805 124.792C115.88 124.267 117.38 122.918 117.605 119.693C117.83 116.469 117.83 116.469 117.83 116.469L123.588 111.314L123.113 110.909Z" fill="black"/>
</g>
<path d="M109.73 95.2471C108.784 95.2471 107.614 95.3347 106.513 95.4481C105.45 96.9359 105.006 97.8717 105.006 97.8717C105.006 97.8717 91.4334 100.196 87.2337 103.796C87.2337 103.796 81.0095 105.446 78.3849 107.921C75.7602 110.395 74.5606 114.97 74.5606 114.97C74.5606 114.97 72.6929 116.558 71.0399 117.77C72.3404 117.677 74.5224 117.731 75.6854 118.944C76.8609 120.171 76.7821 122.336 76.6128 123.592C78.6486 122.267 81.9844 120.069 81.9844 120.069C81.9844 120.069 87.0837 123.593 92.8577 124.568C98.6316 125.543 105.006 124.493 105.006 124.493L104.716 125.387C105.797 124.578 108.135 123.392 111.529 124.718C113.396 125.448 114.33 126.733 114.773 128.097C115.355 126.398 115.769 125.034 115.804 124.793C115.879 124.268 117.378 122.919 117.604 119.694C117.829 116.469 117.829 116.469 117.829 116.469L124.463 110.53C124.604 109.089 124.422 106.868 123.078 103.796C120.454 97.7966 112.055 95.2471 109.73 95.2471Z" stroke="#263238" stroke-miterlimit="10" stroke-linecap="round" stroke-linejoin="round"/>
<path d="M107.556 114.744C107.556 114.744 105.306 116.094 104.557 119.019C103.807 121.943 104.631 123.668 104.631 123.668" stroke="#263238" stroke-miterlimit="10" stroke-linecap="round" stroke-linejoin="round"/>
<path d="M84.3078 102.653C84.3078 102.653 80.9419 104.168 79.764 103.495C78.5858 102.821 78.7542 99.9601 80.1849 98.3614C81.6152 96.7626 84.3923 96.5942 83.4668 96.3417C82.541 96.0893 80.7743 95.5843 82.7095 94.0696C84.6447 92.5549 90.2828 91.2086 94.911 92.5549C99.5392 93.9012 101.222 96.4257 101.558 97.6036C101.895 98.7819 101.895 99.2024 101.895 99.2024C101.895 99.2024 103.915 98.361 104.251 99.0339C104.588 99.7073 104.083 100.128 104.083 100.128C104.083 100.128 104.84 100.885 105.008 102.652C105.177 104.42 103.999 106.018 103.326 106.692C102.652 107.365 101.643 107.533 100.465 106.523C99.2864 105.513 98.6134 102.063 97.856 102.063C97.0987 102.063 93.9012 102.232 93.8171 101.642C93.7331 101.054 93.7331 101.054 93.7331 101.054L85.15 103.241L84.3078 102.653Z" fill="#263238" stroke="#263238" stroke-miterlimit="10" stroke-linecap="round" stroke-linejoin="round"/>
<path d="M101.857 110.02C101.857 110.02 102.456 117.219 100.432 120.818C98.4071 124.418 94.7329 121.868 93.908 121.043C93.083 120.219 97.7322 116.769 98.7822 114.07C99.8322 111.37 101.482 108.52 101.857 110.02Z" fill="white"/>
<mask id="mask4_344_58" style="mask-type:luminance" maskUnits="userSpaceOnUse" x="93" y="109" width="9" height="14">
<path d="M101.857 110.02C101.857 110.02 102.456 117.219 100.432 120.818C98.4071 124.418 94.7329 121.868 93.908 121.043C93.083 120.219 97.7322 116.769 98.7822 114.07C99.8322 111.37 101.482 108.52 101.857 110.02Z" fill="white"/>
</mask>
<g mask="url(#mask4_344_58)">
<path opacity="0.2" d="M101.857 110.02C101.857 110.02 102.456 117.219 100.432 120.818C98.4071 124.418 94.7329 121.868 93.908 121.043C93.083 120.219 97.7322 116.769 98.7822 114.07C99.8322 111.37 101.482 108.52 101.857 110.02Z" fill="black"/>
</g>
<path d="M101.857 110.02C101.857 110.02 102.456 117.219 100.432 120.818C98.4071 124.418 94.7329 121.868 93.908 121.043C93.083 120.219 97.7322 116.769 98.7822 114.07C99.8322 111.37 101.482 108.52 101.857 110.02Z" stroke="#263238" stroke-miterlimit="10" stroke-linecap="round" stroke-linejoin="round"/>
<path d="M84.3079 102.653C84.3079 102.653 84.4763 108.375 86.664 114.35C88.8517 120.324 92.5545 122.344 94.1532 122.428C95.752 122.512 98.7815 119.483 100.128 116.622C101.474 113.761 102.4 110.479 102.4 110.479C102.4 110.479 104.335 109.806 104.84 108.039C105.345 106.272 105.261 104.673 103.915 104.504C102.568 104.336 101.979 106.272 101.979 106.272C101.979 106.272 100.297 105.178 99.6233 102.99C98.9499 100.802 100.297 99.1187 99.6233 99.5396C98.9499 99.9605 97.6036 101.307 96.9307 101.054C96.2577 100.802 97.3516 98.8667 97.3516 98.8667C97.3516 98.8667 86.4115 101.728 84.3079 102.653Z" fill="white" stroke="#263238" stroke-miterlimit="10" stroke-linecap="round" stroke-linejoin="round"/>
<path d="M98.613 107.113L102.315 105.683" stroke="#263238" stroke-miterlimit="10" stroke-linecap="round" stroke-linejoin="round"/>
<path d="M89.8619 107.534L82.4567 106.188C82.4567 106.188 82.5407 108.544 83.7189 109.89C84.8968 111.236 87.3374 111.405 88.2628 111.068C89.1886 110.732 89.0201 108.123 90.0299 108.376C91.0398 108.628 90.8713 109.722 91.2922 110.732C91.7131 111.742 92.1336 111.657 93.9848 111.91C95.836 112.162 97.6032 111.994 98.2762 111.069C98.9495 110.143 99.286 107.282 98.6126 107.114C97.9393 106.945 95.6676 107.282 93.2271 107.366C90.7873 107.45 89.8619 107.534 89.8619 107.534Z" fill="white"/>
<mask id="mask5_344_58" style="mask-type:luminance" maskUnits="userSpaceOnUse" x="82" y="106" width="17" height="7">
<path d="M89.8619 107.534L82.4567 106.188C82.4567 106.188 82.5407 108.544 83.7189 109.89C84.8968 111.236 87.3374 111.405 88.2628 111.068C89.1886 110.732 89.0201 108.123 90.0299 108.376C91.0398 108.628 90.8713 109.722 91.2922 110.732C91.7131 111.742 92.1336 111.657 93.9848 111.91C95.836 112.162 97.6032 111.994 98.2762 111.069C98.9495 110.143 99.286 107.282 98.6126 107.114C97.9393 106.945 95.6676 107.282 93.2271 107.366C90.7873 107.45 89.8619 107.534 89.8619 107.534Z" fill="white"/>
</mask>
<g mask="url(#mask5_344_58)">
<path d="M93.9848 111.91C95.836 112.162 97.6032 111.994 98.2762 111.068C98.7638 110.398 99.0725 108.716 98.9511 107.773L91.6982 111.371C92.0826 111.719 92.6755 111.731 93.9848 111.91Z" fill="#C6FF00"/>
<path d="M88.2627 111.068C89.1885 110.732 89.0201 108.123 90.0299 108.376C90.6329 108.526 90.8154 108.978 90.9545 109.531L93.5056 107.355C93.4132 107.359 93.3207 107.363 93.2274 107.366C92.5026 107.391 91.9145 107.416 91.4414 107.439L84.1173 110.262C85.3804 111.262 87.4314 111.37 88.2627 111.068Z" fill="#C6FF00"/>
</g>
<path d="M89.8619 107.534L82.4567 106.188C82.4567 106.188 82.5407 108.544 83.7189 109.89C84.8968 111.236 87.3374 111.405 88.2628 111.068C89.1886 110.732 89.0201 108.123 90.0299 108.376C91.0398 108.628 90.8713 109.722 91.2922 110.732C91.7131 111.742 92.1336 111.657 93.9848 111.91C95.836 112.162 97.6032 111.994 98.2762 111.069C98.9495 110.143 99.286 107.282 98.6126 107.114C97.9393 106.945 95.6676 107.282 93.2271 107.366C90.7873 107.45 89.8619 107.534 89.8619 107.534Z" stroke="#263238" stroke-miterlimit="10" stroke-linecap="round" stroke-linejoin="round"/>
<path d="M89.357 110.226C89.357 110.226 89.2729 112.414 89.2729 113.761C89.2729 115.107 89.7779 115.107 90.7037 115.023C91.6295 114.939 92.1344 114.518 92.1344 114.518" stroke="#263238" stroke-miterlimit="10" stroke-linecap="round" stroke-linejoin="round"/>
<path d="M92.302 117.379C92.302 117.379 94.0692 115.023 95.8364 115.276C97.6036 115.528 97.6036 117.127 96.6778 117.716C95.752 118.305 93.3959 118.641 92.807 118.473C92.218 118.305 91.9656 117.716 92.302 117.379Z" stroke="#263238" stroke-miterlimit="10" stroke-linecap="round" stroke-linejoin="round"/>
<path d="M96.7619 115.864C96.7619 115.864 94.5742 117.716 92.3861 117.8" stroke="#263238" stroke-miterlimit="10" stroke-linecap="round" stroke-linejoin="round"/>
<path d="M90.2823 105.598C90.2823 105.598 91.3762 106.776 91.7971 106.44C92.218 106.103 93.7323 104.588 95.4995 104.42C97.2667 104.251 97.5192 104.588 97.2667 104.251C97.0142 103.915 95.836 103.326 94.4057 103.494C92.9753 103.663 91.9655 105.093 91.4606 105.345C90.9557 105.598 90.2823 105.598 90.2823 105.598Z" fill="#263238" stroke="#263238" stroke-miterlimit="10" stroke-linecap="round" stroke-linejoin="round"/>
<path d="M88.3472 105.262C88.3472 105.262 88.1787 105.935 87.9263 106.019C87.6738 106.103 87.5898 106.103 86.1591 105.683C84.7284 105.262 84.3079 105.178 84.3079 105.178C84.3079 105.178 84.2238 104.505 85.2333 104.42C86.2431 104.336 87.5054 105.094 87.5054 105.094C87.5054 105.094 88.0947 105.514 88.3472 105.262Z" fill="#263238" stroke="#263238" stroke-miterlimit="10" stroke-linecap="round" stroke-linejoin="round"/>
<path d="M98.1925 93.902C98.1925 93.902 101.979 95.5007 102.316 101.812L103.073 101.728C103.073 101.728 103.157 98.7827 101.895 96.0897C100.633 93.3971 98.1925 93.902 98.1925 93.902Z" fill="white" stroke="#263238" stroke-miterlimit="10" stroke-linecap="round" stroke-linejoin="round"/>
<path d="M101.495 104.455C101.002 104.455 100.541 104.149 100.365 103.659C100.142 103.035 100.467 102.349 101.09 102.126L104.631 100.859C105.254 100.634 105.941 100.96 106.165 101.584C106.388 102.208 106.063 102.894 105.439 103.117L101.899 104.385C101.765 104.432 101.629 104.455 101.495 104.455Z" fill="white" stroke="#263238" stroke-miterlimit="10"/>
<path d="M101.857 103.105C102.052 103.625 101.898 104.164 101.513 104.309C101.127 104.453 100.656 104.149 100.461 103.628C100.266 103.108 100.42 102.569 100.806 102.424C101.191 102.28 101.662 102.584 101.857 103.105Z" fill="white" stroke="#263238" stroke-miterlimit="10" stroke-linecap="round" stroke-linejoin="round"/>
<path d="M101.435 109.801C101.435 110.245 101.075 110.605 100.631 110.605C100.187 110.605 99.8274 110.245 99.8274 109.801C99.8274 109.358 100.631 107.579 100.631 107.579C100.631 107.579 101.435 109.358 101.435 109.801Z" stroke="#263238" stroke-miterlimit="10" stroke-linecap="round" stroke-linejoin="round"/>
<path d="M144.3 51.829C143.401 52.8039 144 54.9035 143.401 57.978C142.801 61.0525 139.051 72.1509 137.176 77.3998C135.302 82.6492 135.902 89.773 135.902 89.773C135.902 89.773 133.352 90.6727 131.552 92.0226C129.753 93.3725 126.978 95.247 126.978 95.247L126.228 94.8724C126.228 94.8724 130.427 90.6731 131.702 88.2735C132.977 85.874 133.352 85.7241 132.677 84.2994C132.002 82.8747 126.528 75.9756 124.128 72.9011C121.729 69.8266 118.804 64.6524 118.204 63.1526C117.605 61.6527 117.679 60.1532 118.129 59.1032C118.579 58.0532 122.778 55.9535 122.854 52.7291C122.928 49.5047 120.829 50.4043 118.879 51.0793C116.929 51.7543 111.68 56.8536 110.48 60.0781C109.28 63.3025 110.331 64.3525 112.43 66.3022C114.53 68.2519 117.079 72.2265 118.429 75.9756C119.779 79.725 121.504 83.3245 124.278 84.2994C124.278 84.2994 119.854 86.399 116.929 88.4987C114.005 90.5983 112.58 91.5732 112.58 91.5732C112.58 91.5732 108.606 92.698 107.106 94.6477C106.209 95.8139 105.64 96.7304 105.322 97.2856C107.035 96.6597 111.184 95.6969 116.03 98.5471C122.037 102.081 123.314 107.944 123.316 111.558L125.703 109.42C125.703 109.42 131.927 106.946 137.101 101.246C142.275 95.5473 143.1 92.7727 143.625 87.6734C144.15 82.574 146.25 62.4024 146.325 62.1021C146.4 61.8022 147.075 60.3024 147.975 60.1524C148.874 60.0025 153.824 64.3517 154.499 64.8016C155.174 65.2514 156.523 65.4765 156.673 64.0518C156.824 62.6272 155.623 59.1024 151.799 55.2782C147.975 51.454 145.2 50.8542 144.3 51.829Z" fill="#263238" stroke="#263238" stroke-miterlimit="10" stroke-linecap="round" stroke-linejoin="round"/>
<path d="M118.354 92.1726C118.354 92.1726 126.303 93.2226 130.502 99.6715" stroke="white" stroke-miterlimit="10" stroke-linecap="round" stroke-linejoin="round"/>
<path d="M156.673 64.0519C156.823 62.6272 155.623 59.1025 151.799 55.2782C147.975 51.4536 145.2 50.8538 144.3 51.8287C143.401 52.8035 144 54.9032 143.401 57.9777C143.32 58.3893 143.182 58.9485 143.001 59.6146C143.577 59.5193 144.457 59.5591 145.5 60.2273C146.001 60.5481 146.392 60.9223 146.701 61.2986C146.998 60.7949 147.445 60.2405 147.975 60.1525C148.874 60.0025 153.824 64.3518 154.499 64.8016C155.174 65.2515 156.523 65.4766 156.673 64.0519Z" fill="#263238" stroke="#263238" stroke-miterlimit="10" stroke-linecap="round" stroke-linejoin="round"/>
<path d="M112.43 66.3015C112.846 66.6874 113.279 67.1549 113.717 67.6815C115.277 67.6639 117.435 67.1135 118.912 64.6203C118.586 63.9964 118.336 63.4818 118.204 63.1518C117.604 61.6519 117.679 60.1525 118.129 59.1025C118.579 58.0524 122.778 55.9528 122.853 52.7283C122.928 49.5039 120.828 50.4036 118.879 51.0785C116.929 51.7535 111.68 56.8529 110.48 60.0773C109.28 63.3017 110.331 64.3518 112.43 66.3015Z" fill="#263238" stroke="#263238" stroke-miterlimit="10" stroke-linecap="round" stroke-linejoin="round"/>
<path d="M118.879 51.0789C116.929 51.7539 111.68 56.8533 110.48 60.0777C109.539 62.6079 109.986 63.7998 111.236 65.1377C111.686 65.0239 112.217 64.7936 112.805 64.3522C114.605 63.0023 115.355 60.6027 116.479 59.7778C117.12 59.3083 118.27 58.5714 119.433 57.7887C120.824 56.6117 122.803 54.9337 122.854 52.7288C122.928 49.5039 120.829 50.404 118.879 51.0789Z" fill="white" stroke="#263238" stroke-miterlimit="10" stroke-linecap="round" stroke-linejoin="round"/>
<path d="M118.879 51.0789C116.929 51.7539 111.68 56.8533 110.48 60.0777C109.811 61.8771 109.843 62.9986 110.366 63.9779C111.009 64.1094 111.784 64.0109 112.655 63.3773C115.13 61.5776 114.23 59.703 116.405 58.653C118.17 57.8008 120.727 56.1574 122.469 54.3251C122.694 53.827 122.84 53.2964 122.854 52.7292C122.928 49.5039 120.829 50.404 118.879 51.0789Z" fill="white" stroke="#263238" stroke-miterlimit="10" stroke-linecap="round" stroke-linejoin="round"/>
<path d="M156.673 64.0519C156.823 62.6272 155.623 59.1025 151.799 55.2782C147.975 51.4536 145.2 50.8538 144.3 51.8287C144.04 52.1105 143.908 52.4892 143.833 52.9551C144.539 52.7042 145.73 52.5358 147.3 53.2534C149.925 54.4533 154.724 60.4524 155.474 62.1018C155.911 63.0634 155.788 64.2521 155.683 65.1377C156.165 65.1039 156.593 64.8173 156.673 64.0519Z" fill="white" stroke="#263238" stroke-miterlimit="10" stroke-linecap="round" stroke-linejoin="round"/>
<path d="M126.699 106.095L123.191 108.953C123.12 109.011 123.081 109.098 123.084 109.19L123.206 112.293C123.215 112.532 123.492 112.658 123.678 112.508L127.309 109.591C127.383 109.531 127.424 109.437 127.416 109.342L127.172 106.296C127.153 106.063 126.88 105.947 126.699 106.095Z" fill="#263238" stroke="#263238" stroke-miterlimit="10" stroke-linecap="round" stroke-linejoin="round"/>
<path d="M125.103 74.2349C124.996 59.1628 124.996 44.2888 125.103 29.5619" stroke="#263238" stroke-miterlimit="10" stroke-linecap="round" stroke-linejoin="round"/>
<path d="M125.103 107.32V74.2349" stroke="white" stroke-miterlimit="10" stroke-linecap="round" stroke-linejoin="round"/>
<path d="M103.207 98.1716C103.288 75.2427 103.288 52.3287 103.207 29.5768" stroke="#263238" stroke-miterlimit="10" stroke-linecap="round" stroke-linejoin="round"/>
<path d="M99.606 138.124C97.8657 137.196 96.9054 137 96.4069 136.993C95.756 138.134 95.0148 139.405 94.3293 140.571C95.5663 140.774 97.4163 141.235 98.5576 142.254C99.3198 142.935 99.8532 143.602 100.22 144.152C101.174 143.571 102.243 142.954 103.405 142.336C102.759 141.086 101.513 139.141 99.606 138.124Z" fill="#263238" stroke="#263238" stroke-miterlimit="10" stroke-linecap="round" stroke-linejoin="round"/>
<path d="M100.025 135.699L94.1392 142.784L97.7363 145.073L104.712 138.097L100.025 135.699Z" fill="#263238" stroke="#263238" stroke-miterlimit="10" stroke-linecap="round" stroke-linejoin="round"/>
<path d="M100.353 136.934L95.9197 142.166L97.6636 143.184L102.75 138.024L100.353 136.934Z" fill="white" stroke="#263238" stroke-miterlimit="10" stroke-linecap="round" stroke-linejoin="round"/>
<path d="M61.2929 144.327C61.3347 142.478 60.4769 139.77 60.2855 139.184C59.8128 137.734 58.7668 137.136 57.9419 137.888C57.2802 138.492 57.6798 139.858 57.8345 140.589C58.1095 141.89 58.3133 143.208 58.768 144.464C58.9501 144.967 59.1664 145.931 59.7935 146.063C60.893 146.295 61.2668 145.477 61.2929 144.327Z" fill="white" stroke="#263238" stroke-miterlimit="10" stroke-linecap="round" stroke-linejoin="round"/>
<path d="M58.9887 145.869C59.0201 144.48 58.3761 142.447 58.2322 142.007C57.8772 140.918 57.0917 140.468 56.4722 141.034C55.9753 141.487 56.2756 142.513 56.3918 143.062C56.5984 144.039 56.7512 145.029 57.0929 145.973C57.2296 146.351 57.392 147.074 57.8631 147.173C58.6884 147.347 58.969 146.733 58.9887 145.869Z" fill="white" stroke="#263238" stroke-miterlimit="10" stroke-linecap="round" stroke-linejoin="round"/>
<path d="M65.8464 139.763C65.8464 139.763 67.5509 141.861 68.9929 142.057C70.4352 142.254 71.156 142.975 71.6151 143.696C72.0738 144.417 70.5663 146.843 70.5008 147.695C70.4352 148.547 69.8451 148.678 69.0588 148.219C68.2721 147.76 68.01 146.515 68.2721 145.597C68.5342 144.679 68.6652 144.417 68.4687 144.352C68.2721 144.286 66.5676 143.827 66.1089 143.565C65.6498 143.303 65.8464 139.763 65.8464 139.763Z" fill="white" stroke="#263238" stroke-miterlimit="10" stroke-linecap="round" stroke-linejoin="round"/>
<path d="M63.9373 143.748C63.9792 141.899 63.1213 139.191 62.9299 138.605C62.4572 137.155 61.4112 136.557 60.5863 137.309C59.9246 137.913 60.3242 139.279 60.4789 140.011C60.7539 141.312 60.9577 142.63 61.4124 143.886C61.5945 144.389 61.8108 145.352 62.4379 145.485C63.5374 145.716 63.9112 144.898 63.9373 143.748Z" fill="white" stroke="#263238" stroke-miterlimit="10" stroke-linecap="round" stroke-linejoin="round"/>
<path d="M67.0805 144.487C67.1223 142.638 66.2645 139.93 66.0731 139.344C65.6004 137.894 64.5544 137.295 63.7295 138.048C63.0678 138.652 63.4674 140.018 63.6221 140.749C63.8971 142.051 64.1009 143.368 64.5556 144.625C64.7377 145.128 64.954 146.092 65.5811 146.224C66.6805 146.455 67.0544 145.637 67.0805 144.487Z" fill="white" stroke="#263238" stroke-miterlimit="10" stroke-linecap="round" stroke-linejoin="round"/>
<path d="M91.8486 152.924C92.4158 150.878 94.2039 148.346 94.5971 147.8C95.5683 146.451 96.8563 146.324 97.4681 147.564C97.9586 148.559 97.0907 149.853 96.6883 150.576C95.9719 151.862 95.3243 153.203 94.4355 154.349C94.0793 154.808 93.5358 155.754 92.8383 155.582C91.6154 155.281 91.4956 154.197 91.8486 152.924Z" fill="white" stroke="#263238" stroke-miterlimit="10" stroke-linecap="round" stroke-linejoin="round"/>
<path d="M94.8989 154.207C95.3246 152.671 96.6673 150.769 96.9627 150.359C97.6924 149.347 98.6596 149.251 99.1187 150.182C99.4869 150.929 98.8352 151.901 98.5329 152.444C97.9951 153.41 97.5086 154.416 96.8413 155.277C96.574 155.621 96.166 156.332 95.6422 156.203C94.724 155.977 94.6339 155.163 94.8989 154.207Z" fill="white" stroke="#263238" stroke-miterlimit="10" stroke-linecap="round" stroke-linejoin="round"/>
<path d="M89.7662 144.061C89.7662 144.061 87.2967 145.498 85.7285 144.986C84.1603 144.474 83.1706 144.9 82.4538 145.458C81.7374 146.016 82.5081 149.433 82.295 150.399C82.082 151.365 82.6536 151.806 83.6252 151.701C84.5969 151.595 85.2815 150.364 85.3112 149.226C85.341 148.089 85.2907 147.736 85.5174 147.763C85.7442 147.791 87.6726 148.148 88.2374 148.092C88.8022 148.037 89.7662 144.061 89.7662 144.061Z" fill="white" stroke="#263238" stroke-miterlimit="10" stroke-linecap="round" stroke-linejoin="round"/>
<path d="M90.4403 149.388C91.0071 147.342 92.7956 144.809 93.1888 144.264C94.16 142.915 95.448 142.788 96.0599 144.027C96.5503 145.022 95.6824 146.316 95.28 147.04C94.5636 148.326 93.916 149.666 93.0272 150.812C92.671 151.271 92.1275 152.217 91.43 152.046C90.2076 151.745 90.0874 150.66 90.4403 149.388Z" fill="white" stroke="#263238" stroke-miterlimit="10" stroke-linecap="round" stroke-linejoin="round"/>
<path d="M86.9196 148.611C87.4868 146.565 89.2749 144.033 89.6681 143.487C90.6393 142.138 91.9273 142.011 92.5392 143.251C93.0296 144.246 92.1621 145.54 91.7593 146.263C91.0429 147.549 90.3953 148.89 89.5065 150.036C89.1503 150.495 88.6068 151.441 87.9093 151.269C86.6869 150.968 86.5671 149.884 86.9196 148.611Z" fill="white" stroke="#263238" stroke-miterlimit="10" stroke-linecap="round" stroke-linejoin="round"/>
<path d="M47.3046 136.338L54.4642 155.912L92.858 169.311L90.6587 150.613L47.3046 136.338Z" fill="#C6FF00" stroke="#263238" stroke-miterlimit="10" stroke-linecap="round" stroke-linejoin="round"/>
<path d="M133.836 125.192H146.035" stroke="white" stroke-miterlimit="10" stroke-linecap="round" stroke-linejoin="round"/>
<path d="M125.122 125.192H129.382" stroke="white" stroke-miterlimit="10" stroke-linecap="round" stroke-linejoin="round"/>
<path d="M143.906 127.418H146.035" stroke="white" stroke-miterlimit="10" stroke-linecap="round" stroke-linejoin="round"/>
<path d="M137.902 127.418H142.162" stroke="white" stroke-miterlimit="10" stroke-linecap="round" stroke-linejoin="round"/>
<path d="M125.122 127.418H134.998" stroke="white" stroke-miterlimit="10" stroke-linecap="round" stroke-linejoin="round"/>
<path d="M135.191 129.643H146.035" stroke="white" stroke-miterlimit="10" stroke-linecap="round" stroke-linejoin="round"/>
<path d="M125.122 129.643H132.867" stroke="white" stroke-miterlimit="10" stroke-linecap="round" stroke-linejoin="round"/>
<path d="M141.388 131.868H146.035" stroke="white" stroke-miterlimit="10" stroke-linecap="round" stroke-linejoin="round"/>
<path d="M129.769 131.868H139.451" stroke="white" stroke-miterlimit="10" stroke-linecap="round" stroke-linejoin="round"/>
<path d="M125.122 131.868H127.639" stroke="white" stroke-miterlimit="10" stroke-linecap="round" stroke-linejoin="round"/>
<path d="M133.836 133.814H146.035" stroke="white" stroke-miterlimit="10" stroke-linecap="round" stroke-linejoin="round"/>
<path d="M125.122 133.814H129.382" stroke="white" stroke-miterlimit="10" stroke-linecap="round" stroke-linejoin="round"/>
<path d="M143.906 136.039H146.035" stroke="white" stroke-miterlimit="10" stroke-linecap="round" stroke-linejoin="round"/>
<path d="M137.902 136.039H142.162" stroke="white" stroke-miterlimit="10" stroke-linecap="round" stroke-linejoin="round"/>
<path d="M125.122 136.039H134.998" stroke="white" stroke-miterlimit="10" stroke-linecap="round" stroke-linejoin="round"/>
<path d="M135.191 138.264H146.035" stroke="white" stroke-miterlimit="10" stroke-linecap="round" stroke-linejoin="round"/>
<path d="M125.122 138.264H132.867" stroke="white" stroke-miterlimit="10" stroke-linecap="round" stroke-linejoin="round"/>
<path d="M143.906 142.443H146.035" stroke="white" stroke-miterlimit="10" stroke-linecap="round" stroke-linejoin="round"/>
<path d="M137.902 142.443H142.162" stroke="white" stroke-miterlimit="10" stroke-linecap="round" stroke-linejoin="round"/>
<path d="M125.122 142.443H134.998" stroke="white" stroke-miterlimit="10" stroke-linecap="round" stroke-linejoin="round"/>
<path d="M135.191 144.668H146.035" stroke="white" stroke-miterlimit="10" stroke-linecap="round" stroke-linejoin="round"/>
<path d="M125.122 144.668H132.867" stroke="white" stroke-miterlimit="10" stroke-linecap="round" stroke-linejoin="round"/>
<path d="M141.388 146.893H146.035" stroke="white" stroke-miterlimit="10" stroke-linecap="round" stroke-linejoin="round"/>
<path d="M129.769 146.893H139.451" stroke="white" stroke-miterlimit="10" stroke-linecap="round" stroke-linejoin="round"/>
<path d="M125.122 146.893H127.639" stroke="white" stroke-miterlimit="10" stroke-linecap="round" stroke-linejoin="round"/>
<path d="M133.836 148.84H146.035" stroke="white" stroke-miterlimit="10" stroke-linecap="round" stroke-linejoin="round"/>
<path d="M125.122 148.84H129.382" stroke="white" stroke-miterlimit="10" stroke-linecap="round" stroke-linejoin="round"/>
<path d="M143.906 151.065H146.035" stroke="white" stroke-miterlimit="10" stroke-linecap="round" stroke-linejoin="round"/>
<path d="M137.902 151.065H142.162" stroke="white" stroke-miterlimit="10" stroke-linecap="round" stroke-linejoin="round"/>
<path d="M125.122 151.065H134.998" stroke="white" stroke-miterlimit="10" stroke-linecap="round" stroke-linejoin="round"/>
<path d="M148.579 155.123L150.149 148.057L151.719 152.506L153.813 133.402L156.691 148.057L160.093 122.672L163.757 151.982L165.327 149.103L166.112 154.861" stroke="white" stroke-miterlimit="10" stroke-linecap="round" stroke-linejoin="round"/>
<path d="M126.767 120.894L135.766 111.895L142.388 117.838L147.991 112.744L156.312 119.027L165.311 109.518" stroke="white" stroke-miterlimit="10" stroke-linecap="round" stroke-linejoin="round"/>
<path d="M136.954 111.895C136.954 111.239 136.422 110.706 135.766 110.706C135.109 110.706 134.577 111.239 134.577 111.895C134.577 112.552 135.109 113.084 135.766 113.084C136.422 113.084 136.954 112.552 136.954 111.895Z" fill="#C6FF00" stroke="white" stroke-miterlimit="10" stroke-linecap="round" stroke-linejoin="round"/>
<path d="M149.18 112.744C149.18 112.088 148.647 111.555 147.991 111.555C147.334 111.555 146.802 112.088 146.802 112.744C146.802 113.401 147.334 113.933 147.991 113.933C148.648 113.933 149.18 113.401 149.18 112.744Z" fill="#C6FF00" stroke="white" stroke-miterlimit="10" stroke-linecap="round" stroke-linejoin="round"/>
<path d="M156.312 120.215C156.968 120.215 157.5 119.683 157.5 119.027C157.5 118.37 156.968 117.838 156.312 117.838C155.655 117.838 155.123 118.37 155.123 119.027C155.123 119.683 155.655 120.215 156.312 120.215Z" fill="#C6FF00" stroke="white" stroke-miterlimit="10" stroke-linecap="round" stroke-linejoin="round"/>
<path d="M166.329 109.518C166.329 108.862 165.797 108.329 165.141 108.329C164.484 108.329 163.952 108.862 163.952 109.518C163.952 110.175 164.484 110.707 165.141 110.707C165.797 110.706 166.329 110.175 166.329 109.518Z" fill="#C6FF00" stroke="white" stroke-miterlimit="10" stroke-linecap="round" stroke-linejoin="round"/>
<path d="M126.767 122.083C127.423 122.083 127.955 121.551 127.955 120.894C127.955 120.238 127.423 119.706 126.767 119.706C126.11 119.706 125.578 120.238 125.578 120.894C125.578 121.551 126.11 122.083 126.767 122.083Z" fill="#C6FF00" stroke="white" stroke-miterlimit="10" stroke-linecap="round" stroke-linejoin="round"/>
<path d="M142.388 118.687C143.044 118.687 143.577 118.155 143.577 117.499C143.577 116.842 143.044 116.31 142.388 116.31C141.731 116.31 141.199 116.842 141.199 117.499C141.199 118.155 141.731 118.687 142.388 118.687Z" fill="#C6FF00" stroke="white" stroke-miterlimit="10" stroke-linecap="round" stroke-linejoin="round"/>
<path d="M62.2911 82.0394L65.7865 80.0213" stroke="white" stroke-miterlimit="10" stroke-linecap="round" stroke-linejoin="round"/>
<path d="M45.2358 80.0213V91.8864L55.511 97.8191L65.7865 91.8864V80.0213L55.511 74.0886L45.2358 80.0213Z" stroke="white" stroke-miterlimit="10" stroke-linecap="round" stroke-linejoin="round"/>
<path d="M48.7312 82.0394V89.8683L55.5109 93.7826L62.2911 89.8683V82.0394L55.5109 78.1251L48.7312 82.0394Z" stroke="white" stroke-miterlimit="10" stroke-linecap="round" stroke-linejoin="round"/>
<path d="M55.511 74.0886V65.2747" stroke="white" stroke-miterlimit="10" stroke-linecap="round" stroke-linejoin="round"/>
<path d="M55.5109 66.572C56.4685 66.572 57.2447 65.7957 57.2447 64.8382C57.2447 63.8806 56.4685 63.1044 55.5109 63.1044C54.5534 63.1044 53.7771 63.8806 53.7771 64.8382C53.7771 65.7957 54.5534 66.572 55.5109 66.572Z" fill="#C6FF00" stroke="white" stroke-miterlimit="10" stroke-linecap="round" stroke-linejoin="round"/>
<path d="M55.511 97.5678V106.382" stroke="white" stroke-miterlimit="10" stroke-linecap="round" stroke-linejoin="round"/>
<path d="M53.7776 106.819C53.7776 107.776 54.5539 108.552 55.5114 108.552C56.469 108.552 57.2452 107.776 57.2452 106.819C57.2452 105.861 56.469 105.085 55.5114 105.085C54.5539 105.085 53.7776 105.861 53.7776 106.819Z" fill="#C6FF00" stroke="white" stroke-miterlimit="10" stroke-linecap="round" stroke-linejoin="round"/>
<path d="M48.7312 82.0394L45.2358 80.0213" stroke="white" stroke-miterlimit="10" stroke-linecap="round" stroke-linejoin="round"/>
<path d="M49.0262 89.927L55.806 86.0123L62.291 89.8683" stroke="white" stroke-miterlimit="10" stroke-linecap="round" stroke-linejoin="round"/>
<path d="M55.806 86.0123V78.1251" stroke="white" stroke-miterlimit="10" stroke-linecap="round" stroke-linejoin="round"/>
<path d="M76.6263 47.5888H81.2739" stroke="white" stroke-miterlimit="10" stroke-linecap="round" stroke-linejoin="round"/>
<path d="M65.0074 47.5888H74.69" stroke="white" stroke-miterlimit="10" stroke-linecap="round" stroke-linejoin="round"/>
<path d="M60.3599 47.5888H62.8776" stroke="white" stroke-miterlimit="10" stroke-linecap="round" stroke-linejoin="round"/>
<path d="M69.074 49.5356H81.2739" stroke="white" stroke-miterlimit="10" stroke-linecap="round" stroke-linejoin="round"/>
<path d="M60.3599 49.5356H64.6203" stroke="white" stroke-miterlimit="10" stroke-linecap="round" stroke-linejoin="round"/>
<path d="M79.1437 51.7607H81.2739" stroke="white" stroke-miterlimit="10" stroke-linecap="round" stroke-linejoin="round"/>
<path d="M73.1406 51.7607H77.401" stroke="white" stroke-miterlimit="10" stroke-linecap="round" stroke-linejoin="round"/>
<path d="M60.3599 51.7607H70.2362" stroke="white" stroke-miterlimit="10" stroke-linecap="round" stroke-linejoin="round"/>
<path d="M70.4296 53.9854H81.2739" stroke="white" stroke-miterlimit="10" stroke-linecap="round" stroke-linejoin="round"/>
<path d="M60.3599 53.9854H68.106" stroke="white" stroke-miterlimit="10" stroke-linecap="round" stroke-linejoin="round"/>
<path d="M76.6263 56.2104H81.2739" stroke="white" stroke-miterlimit="10" stroke-linecap="round" stroke-linejoin="round"/>
<path d="M65.0074 56.2104H74.69" stroke="white" stroke-miterlimit="10" stroke-linecap="round" stroke-linejoin="round"/>
<path d="M60.3599 56.2104H62.8776" stroke="white" stroke-miterlimit="10" stroke-linecap="round" stroke-linejoin="round"/>
<path d="M69.074 58.1573H81.2739" stroke="white" stroke-miterlimit="10" stroke-linecap="round" stroke-linejoin="round"/>
<path d="M60.3599 58.1573H64.6203" stroke="white" stroke-miterlimit="10" stroke-linecap="round" stroke-linejoin="round"/>
<path d="M79.1437 60.3824H81.2739" stroke="white" stroke-miterlimit="10" stroke-linecap="round" stroke-linejoin="round"/>
<path d="M73.1406 60.3824H77.401" stroke="white" stroke-miterlimit="10" stroke-linecap="round" stroke-linejoin="round"/>
<path d="M60.3599 60.3824H70.2362" stroke="white" stroke-miterlimit="10" stroke-linecap="round" stroke-linejoin="round"/>
<path d="M70.4296 62.6071H81.2739" stroke="white" stroke-miterlimit="10" stroke-linecap="round" stroke-linejoin="round"/>
<path d="M60.3599 62.6071H68.106" stroke="white" stroke-miterlimit="10" stroke-linecap="round" stroke-linejoin="round"/>
<path d="M76.6263 64.8322H81.2739" stroke="white" stroke-miterlimit="10" stroke-linecap="round" stroke-linejoin="round"/>
<path d="M65.0074 64.8322H74.69" stroke="white" stroke-miterlimit="10" stroke-linecap="round" stroke-linejoin="round"/>
<path d="M60.3599 64.8322H62.8776" stroke="white" stroke-miterlimit="10" stroke-linecap="round" stroke-linejoin="round"/>
<path d="M69.074 66.779H81.2739" stroke="white" stroke-miterlimit="10" stroke-linecap="round" stroke-linejoin="round"/>
<path d="M60.3599 66.779H64.6203" stroke="white" stroke-miterlimit="10" stroke-linecap="round" stroke-linejoin="round"/>
<path d="M81.2739 69.0041H79.1437" stroke="white" stroke-miterlimit="10" stroke-linecap="round" stroke-linejoin="round"/>
<path d="M73.1406 69.0041H77.401" stroke="white" stroke-miterlimit="10" stroke-linecap="round" stroke-linejoin="round"/>
<path d="M60.3599 69.0041H70.2362" stroke="white" stroke-miterlimit="10" stroke-linecap="round" stroke-linejoin="round"/>
<path d="M70.4296 71.2288H81.2739" stroke="white" stroke-miterlimit="10" stroke-linecap="round" stroke-linejoin="round"/>
<path d="M60.3599 71.2288H68.106" stroke="white" stroke-miterlimit="10" stroke-linecap="round" stroke-linejoin="round"/>
<path d="M76.6263 73.4538H81.2739" stroke="white" stroke-miterlimit="10" stroke-linecap="round" stroke-linejoin="round"/>
<path d="M65.0074 73.4538H74.69" stroke="white" stroke-miterlimit="10" stroke-linecap="round" stroke-linejoin="round"/>
<path d="M60.3599 73.4538H62.8776" stroke="white" stroke-miterlimit="10" stroke-linecap="round" stroke-linejoin="round"/>
<path d="M92.6222 168.749L105.177 154.85L65.5266 141.453L54.2284 155.351L92.6222 168.749Z" fill="#C6FF00" stroke="#263238" stroke-miterlimit="10" stroke-linecap="round" stroke-linejoin="round"/>
<path d="M91.4258 165.052L99.8537 155.959L69.6909 145.313L61.2629 155.072L91.4258 165.052Z" fill="#263238" stroke="#263238" stroke-miterlimit="10" stroke-linecap="round" stroke-linejoin="round"/>
<path d="M86.9982 103.234C86.9982 103.234 80.7741 104.884 78.1494 107.358C75.5247 109.833 74.3252 114.407 74.3252 114.407C74.3252 114.407 70.8008 117.407 69.151 118.307C67.5012 119.206 64.8018 120.931 63.4519 124.981C62.102 129.03 60.4521 138.179 60.4521 138.179L64.6514 140.128C64.6514 140.128 64.7266 137.729 68.4761 134.054C72.2255 130.38 74.5503 124.156 74.8502 124.006C75.1501 123.856 81.7489 119.507 81.7489 119.507C81.7489 119.507 86.8483 123.031 92.6222 124.006C98.3961 124.981 104.77 123.931 104.77 123.931L102.97 129.48C102.97 129.48 98.846 131.28 97.7963 133.455C96.7467 135.63 91.7973 143.878 91.7973 143.878L95.3216 146.728C95.3216 146.728 98.9959 143.878 104.17 141.254C109.344 138.629 110.619 136.755 112.119 133.68C113.619 130.606 115.493 124.757 115.568 124.232C115.643 123.707 117.143 122.357 117.368 119.132C117.593 115.908 117.593 115.908 117.593 115.908L125.467 108.859C125.467 108.859 131.691 106.384 136.865 100.685C142.039 94.9859 142.864 92.2113 143.389 87.1119C143.914 82.0126 146.014 61.841 146.089 61.5407C146.164 61.2408 146.838 59.7409 147.738 59.591C148.638 59.4411 153.588 63.7903 154.262 64.2401C154.937 64.69 156.287 64.9151 156.437 63.4904C156.588 62.0657 155.387 58.541 151.563 54.7168C147.739 50.8921 144.964 50.2923 144.064 51.2672C143.164 52.242 143.764 54.3417 143.164 57.4162C142.565 60.4907 138.815 71.5891 136.94 76.838C135.066 82.0873 135.666 89.2112 135.666 89.2112C135.666 89.2112 133.116 90.1108 131.316 91.4608C129.517 92.8107 126.742 94.6852 126.742 94.6852L125.992 94.3101C125.992 94.3101 130.192 90.1108 131.466 87.7113C132.741 85.3118 133.116 85.1618 132.441 83.7371C131.766 82.3124 126.292 75.4133 123.893 72.3388C121.493 69.2643 118.568 64.0902 117.969 62.5903C117.369 61.0905 117.444 59.591 117.894 58.541C118.343 57.491 122.543 55.3913 122.618 52.1669C122.693 48.9424 120.593 49.8421 118.643 50.5171C116.694 51.192 111.444 56.2914 110.245 59.5158C109.045 62.7403 110.095 63.7903 112.194 65.74C114.294 67.6897 116.844 71.6643 118.193 75.4133C119.543 79.1628 121.268 82.7623 124.043 83.7371C124.043 83.7371 119.618 85.8368 116.694 87.9364C113.769 90.0361 112.344 91.0109 112.344 91.0109C112.344 91.0109 108.37 92.1357 106.87 94.0854C105.37 96.0351 104.771 97.3099 104.771 97.3099C104.771 97.3099 91.1975 99.6342 86.9982 103.234Z" fill="white"/>
<mask id="mask6_344_58" style="mask-type:luminance" maskUnits="userSpaceOnUse" x="60" y="49" width="97" height="98">
<path d="M86.9982 103.234C86.9982 103.234 80.7741 104.884 78.1494 107.358C75.5247 109.833 74.3252 114.407 74.3252 114.407C74.3252 114.407 70.8008 117.407 69.151 118.307C67.5012 119.206 64.8018 120.931 63.4519 124.981C62.102 129.03 60.4521 138.179 60.4521 138.179L64.6514 140.128C64.6514 140.128 64.7266 137.729 68.4761 134.054C72.2255 130.38 74.5503 124.156 74.8502 124.006C75.1501 123.856 81.7489 119.507 81.7489 119.507C81.7489 119.507 86.8483 123.031 92.6222 124.006C98.3961 124.981 104.77 123.931 104.77 123.931L102.97 129.48C102.97 129.48 98.846 131.28 97.7963 133.455C96.7467 135.63 91.7973 143.878 91.7973 143.878L95.3216 146.728C95.3216 146.728 98.9959 143.878 104.17 141.254C109.344 138.629 110.619 136.755 112.119 133.68C113.619 130.606 115.493 124.757 115.568 124.232C115.643 123.707 117.143 122.357 117.368 119.132C117.593 115.908 117.593 115.908 117.593 115.908L125.467 108.859C125.467 108.859 131.691 106.384 136.865 100.685C142.039 94.9859 142.864 92.2113 143.389 87.1119C143.914 82.0126 146.014 61.841 146.089 61.5407C146.164 61.2408 146.838 59.7409 147.738 59.591C148.638 59.4411 153.588 63.7903 154.262 64.2401C154.937 64.69 156.287 64.9151 156.437 63.4904C156.588 62.0657 155.387 58.541 151.563 54.7168C147.739 50.8921 144.964 50.2923 144.064 51.2672C143.164 52.242 143.764 54.3417 143.164 57.4162C142.565 60.4907 138.815 71.5891 136.94 76.838C135.066 82.0873 135.666 89.2112 135.666 89.2112C135.666 89.2112 133.116 90.1108 131.316 91.4608C129.517 92.8107 126.742 94.6852 126.742 94.6852L125.992 94.3101C125.992 94.3101 130.192 90.1108 131.466 87.7113C132.741 85.3118 133.116 85.1618 132.441 83.7371C131.766 82.3124 126.292 75.4133 123.893 72.3388C121.493 69.2643 118.568 64.0902 117.969 62.5903C117.369 61.0905 117.444 59.591 117.894 58.541C118.343 57.491 122.543 55.3913 122.618 52.1669C122.693 48.9424 120.593 49.8421 118.643 50.5171C116.694 51.192 111.444 56.2914 110.245 59.5158C109.045 62.7403 110.095 63.7903 112.194 65.74C114.294 67.6897 116.844 71.6643 118.193 75.4133C119.543 79.1628 121.268 82.7623 124.043 83.7371C124.043 83.7371 119.618 85.8368 116.694 87.9364C113.769 90.0361 112.344 91.0109 112.344 91.0109C112.344 91.0109 108.37 92.1357 106.87 94.0854C105.37 96.0351 104.771 97.3099 104.771 97.3099C104.771 97.3099 91.1975 99.6342 86.9982 103.234Z" fill="white"/>
</mask>
<g mask="url(#mask6_344_58)">
<path opacity="0.2" d="M122.878 110.347L116.471 113.316C116.471 113.316 116.784 118.16 115.065 120.66C113.346 123.16 112.721 123.942 112.721 123.942C112.721 123.942 112.565 127.692 111.471 130.035C110.377 132.38 108.658 133.161 108.658 133.161C108.658 133.161 108.815 135.817 106.627 137.848C104.439 139.88 98.9706 143.161 95.5331 145.348C95.1741 145.577 94.834 145.819 94.506 146.067L95.3224 146.727C95.3224 146.727 98.9967 143.877 104.171 141.253C109.345 138.628 110.62 136.754 112.12 133.679C113.619 130.605 115.494 124.756 115.569 124.231C115.644 123.706 117.144 122.356 117.369 119.131C117.594 115.907 117.594 115.907 117.594 115.907L123.352 110.752L122.878 110.347Z" fill="black"/>
</g>
<mask id="mask7_344_58" style="mask-type:luminance" maskUnits="userSpaceOnUse" x="60" y="49" width="97" height="98">
<path d="M86.9982 103.234C86.9982 103.234 80.7741 104.884 78.1494 107.358C75.5247 109.833 74.3252 114.407 74.3252 114.407C74.3252 114.407 70.8008 117.407 69.151 118.307C67.5012 119.206 64.8018 120.931 63.4519 124.981C62.102 129.03 60.4521 138.179 60.4521 138.179L64.6514 140.128C64.6514 140.128 64.7266 137.729 68.4761 134.054C72.2255 130.38 74.5503 124.156 74.8502 124.006C75.1501 123.856 81.7489 119.507 81.7489 119.507C81.7489 119.507 86.8483 123.031 92.6222 124.006C98.3961 124.981 104.77 123.931 104.77 123.931L102.97 129.48C102.97 129.48 98.846 131.28 97.7963 133.455C96.7467 135.63 91.7973 143.878 91.7973 143.878L95.3216 146.728C95.3216 146.728 98.9959 143.878 104.17 141.254C109.344 138.629 110.619 136.755 112.119 133.68C113.619 130.606 115.493 124.757 115.568 124.232C115.643 123.707 117.143 122.357 117.368 119.132C117.593 115.908 117.593 115.908 117.593 115.908L125.467 108.859C125.467 108.859 131.691 106.384 136.865 100.685C142.039 94.9859 142.864 92.2113 143.389 87.1119C143.914 82.0126 146.014 61.841 146.089 61.5407C146.164 61.2408 146.838 59.7409 147.738 59.591C148.638 59.4411 153.588 63.7903 154.262 64.2401C154.937 64.69 156.287 64.9151 156.437 63.4904C156.588 62.0657 155.387 58.541 151.563 54.7168C147.739 50.8921 144.964 50.2923 144.064 51.2672C143.164 52.242 143.764 54.3417 143.164 57.4162C142.565 60.4907 138.815 71.5891 136.94 76.838C135.066 82.0873 135.666 89.2112 135.666 89.2112C135.666 89.2112 133.116 90.1108 131.316 91.4608C129.517 92.8107 126.742 94.6852 126.742 94.6852L125.992 94.3101C125.992 94.3101 130.192 90.1108 131.466 87.7113C132.741 85.3118 133.116 85.1618 132.441 83.7371C131.766 82.3124 126.292 75.4133 123.893 72.3388C121.493 69.2643 118.568 64.0902 117.969 62.5903C117.369 61.0905 117.444 59.591 117.894 58.541C118.343 57.491 122.543 55.3913 122.618 52.1669C122.693 48.9424 120.593 49.8421 118.643 50.5171C116.694 51.192 111.444 56.2914 110.245 59.5158C109.045 62.7403 110.095 63.7903 112.194 65.74C114.294 67.6897 116.844 71.6643 118.193 75.4133C119.543 79.1628 121.268 82.7623 124.043 83.7371C124.043 83.7371 119.618 85.8368 116.694 87.9364C113.769 90.0361 112.344 91.0109 112.344 91.0109C112.344 91.0109 108.37 92.1357 106.87 94.0854C105.37 96.0351 104.771 97.3099 104.771 97.3099C104.771 97.3099 91.1975 99.6342 86.9982 103.234Z" fill="white"/>
</mask>
<g mask="url(#mask7_344_58)">
<path opacity="0.2" d="M92.6222 124.005C97.8555 124.889 103.582 124.11 104.608 123.956C104.938 123.095 105.15 122.124 104.595 121.754C103.658 121.129 103.97 119.41 103.97 119.41C103.97 119.41 103.189 121.129 96.9389 121.129C90.6886 121.129 82.2506 115.816 82.2506 115.816C82.2506 115.816 81.6255 117.691 79.907 118.316C78.188 118.941 73.5003 121.597 73.5003 121.597C73.5003 121.597 73.3439 125.973 70.2188 128.629C67.0936 131.285 63.4933 137.486 63.4933 137.486L62.9474 139.337L64.6515 140.128C64.6515 140.128 64.7266 137.728 68.4761 134.053C72.2256 130.379 74.5503 124.155 74.8502 124.005C75.1501 123.855 81.7493 119.506 81.7493 119.506C81.7493 119.506 86.8483 123.031 92.6222 124.005Z" fill="black"/>
</g>
<path d="M86.9982 103.234C86.9982 103.234 80.7741 104.884 78.1494 107.358C75.5247 109.833 74.3252 114.407 74.3252 114.407C74.3252 114.407 70.8008 117.407 69.151 118.307C67.5012 119.206 64.8018 120.931 63.4519 124.981C62.102 129.03 60.4521 138.179 60.4521 138.179L64.6514 140.128C64.6514 140.128 64.7266 137.729 68.4761 134.054C72.2255 130.38 74.5503 124.156 74.8502 124.006C75.1501 123.856 81.7489 119.507 81.7489 119.507C81.7489 119.507 86.8483 123.031 92.6222 124.006C98.3961 124.981 104.77 123.931 104.77 123.931L102.97 129.48C102.97 129.48 98.846 131.28 97.7963 133.455C96.7467 135.63 91.7973 143.878 91.7973 143.878L95.3216 146.728C95.3216 146.728 98.9959 143.878 104.17 141.254C109.344 138.629 110.619 136.755 112.119 133.68C113.619 130.606 115.493 124.757 115.568 124.232C115.643 123.707 117.143 122.357 117.368 119.132C117.593 115.908 117.593 115.908 117.593 115.908L125.467 108.859C125.467 108.859 131.691 106.384 136.865 100.685C142.039 94.9859 142.864 92.2113 143.389 87.1119C143.914 82.0125 146.014 61.841 146.089 61.5407C146.164 61.2408 146.838 59.7409 147.738 59.591C148.638 59.4411 153.588 63.7903 154.262 64.2401C154.937 64.69 156.287 64.9151 156.437 63.4904C156.588 62.0657 155.387 58.541 151.563 54.7168C147.739 50.8921 144.964 50.2923 144.064 51.2672C143.164 52.242 143.764 54.3417 143.164 57.4162C142.565 60.4907 138.815 71.5891 136.94 76.838C135.066 82.0873 135.666 89.2112 135.666 89.2112C135.666 89.2112 133.116 90.1108 131.316 91.4608C129.517 92.8107 126.742 94.6852 126.742 94.6852L125.992 94.3101C125.992 94.3101 130.192 90.1108 131.466 87.7113C132.741 85.3118 133.116 85.1618 132.441 83.7371C131.766 82.3124 126.292 75.4133 123.893 72.3388C121.493 69.2643 118.568 64.0902 117.969 62.5903C117.369 61.0905 117.444 59.591 117.894 58.541C118.343 57.491 122.543 55.3913 122.618 52.1669C122.693 48.9424 120.593 49.8421 118.643 50.5171C116.694 51.192 111.444 56.2914 110.245 59.5158C109.045 62.7403 110.095 63.7903 112.194 65.74C114.294 67.6897 116.844 71.6643 118.193 75.4133C119.543 79.1628 121.268 82.7623 124.043 83.7371C124.043 83.7371 119.618 85.8368 116.694 87.9364C113.769 90.0361 112.344 91.0109 112.344 91.0109C112.344 91.0109 108.37 92.1357 106.87 94.0854C105.37 96.0351 104.771 97.3099 104.771 97.3099C104.771 97.3099 91.1975 99.6342 86.9982 103.234Z" stroke="#263238" stroke-miterlimit="10" stroke-linecap="round" stroke-linejoin="round"/>
<path d="M109.495 94.6852C108.548 94.6852 107.378 94.7728 106.277 94.8862C105.214 96.374 104.77 97.3099 104.77 97.3099C104.77 97.3099 91.1975 99.6346 86.9978 103.234C86.9978 103.234 80.7737 104.884 78.149 107.359C75.5244 109.833 74.3248 114.408 74.3248 114.408C74.3248 114.408 72.4571 115.996 70.8041 117.208C72.1045 117.115 74.2866 117.169 75.4496 118.382C76.625 119.609 76.5462 121.774 76.377 123.03C78.4127 121.706 81.7485 119.507 81.7485 119.507C81.7485 119.507 86.8479 123.031 92.6218 124.006C98.3957 124.981 104.77 123.931 104.77 123.931L104.48 124.825C105.561 124.016 107.899 122.83 111.294 124.157C113.16 124.886 114.094 126.171 114.537 127.535C115.119 125.836 115.533 124.472 115.568 124.231C115.643 123.706 117.143 122.357 117.368 119.132C117.593 115.908 117.593 115.908 117.593 115.908L124.227 109.968C124.368 108.527 124.186 106.306 122.842 103.235C120.218 97.2347 111.819 94.6852 109.495 94.6852Z" fill="#C6FF00"/>
<mask id="mask8_344_58" style="mask-type:luminance" maskUnits="userSpaceOnUse" x="70" y="94" width="55" height="34">
<path d="M109.495 94.6852C108.548 94.6852 107.378 94.7728 106.277 94.8862C105.214 96.374 104.77 97.3099 104.77 97.3099C104.77 97.3099 91.1975 99.6346 86.9978 103.234C86.9978 103.234 80.7737 104.884 78.149 107.359C75.5244 109.833 74.3248 114.408 74.3248 114.408C74.3248 114.408 72.4571 115.996 70.8041 117.208C72.1045 117.115 74.2866 117.169 75.4496 118.382C76.625 119.609 76.5462 121.774 76.377 123.03C78.4127 121.706 81.7485 119.507 81.7485 119.507C81.7485 119.507 86.8479 123.031 92.6218 124.006C98.3957 124.981 104.77 123.931 104.77 123.931L104.48 124.825C105.561 124.016 107.899 122.83 111.294 124.157C113.16 124.886 114.094 126.171 114.537 127.535C115.119 125.836 115.533 124.472 115.568 124.231C115.643 123.706 117.143 122.357 117.368 119.132C117.593 115.908 117.593 115.908 117.593 115.908L124.227 109.968C124.368 108.527 124.186 106.306 122.842 103.235C120.218 97.2347 111.819 94.6852 109.495 94.6852Z" fill="white"/>
</mask>
<g mask="url(#mask8_344_58)">
<path opacity="0.2" d="M92.6222 124.005C97.8555 124.889 103.582 124.11 104.608 123.956C104.938 123.095 105.15 122.124 104.595 121.754C103.658 121.129 103.97 119.41 103.97 119.41C103.97 119.41 103.189 121.129 96.9389 121.129C90.6886 121.129 82.2506 115.816 82.2506 115.816C82.2506 115.816 81.6255 117.691 79.907 118.316C78.188 118.941 73.5003 121.597 73.5003 121.597C73.5003 121.597 73.3439 125.973 70.2188 128.629C67.0936 131.285 63.4933 137.486 63.4933 137.486L62.9474 139.337L64.6515 140.128C64.6515 140.128 64.7266 137.728 68.4761 134.053C72.2256 130.379 74.5503 124.155 74.8502 124.005C75.1501 123.855 81.7493 119.506 81.7493 119.506C81.7493 119.506 86.8483 123.031 92.6222 124.005Z" fill="black"/>
</g>
<mask id="mask9_344_58" style="mask-type:luminance" maskUnits="userSpaceOnUse" x="70" y="94" width="55" height="34">
<path d="M109.495 94.6852C108.548 94.6852 107.378 94.7728 106.277 94.8862C105.214 96.374 104.77 97.3099 104.77 97.3099C104.77 97.3099 91.1975 99.6346 86.9978 103.234C86.9978 103.234 80.7737 104.884 78.149 107.359C75.5244 109.833 74.3248 114.408 74.3248 114.408C74.3248 114.408 72.4571 115.996 70.8041 117.208C72.1045 117.115 74.2866 117.169 75.4496 118.382C76.625 119.609 76.5462 121.774 76.377 123.03C78.4127 121.706 81.7485 119.507 81.7485 119.507C81.7485 119.507 86.8479 123.031 92.6218 124.006C98.3957 124.981 104.77 123.931 104.77 123.931L104.48 124.825C105.561 124.016 107.899 122.83 111.294 124.157C113.16 124.886 114.094 126.171 114.537 127.535C115.119 125.836 115.533 124.472 115.568 124.231C115.643 123.706 117.143 122.357 117.368 119.132C117.593 115.908 117.593 115.908 117.593 115.908L124.227 109.968C124.368 108.527 124.186 106.306 122.842 103.235C120.218 97.2347 111.819 94.6852 109.495 94.6852Z" fill="white"/>
</mask>
<g mask="url(#mask9_344_58)">
<path opacity="0.2" d="M122.878 110.347L116.471 113.316C116.471 113.316 116.784 118.16 115.065 120.66C113.346 123.16 112.721 123.942 112.721 123.942C112.721 123.942 112.565 127.692 111.471 130.035C110.377 132.38 108.658 133.161 108.658 133.161C108.658 133.161 108.815 135.817 106.627 137.848C104.439 139.88 98.9706 143.161 95.5331 145.348C95.1741 145.577 94.834 145.819 94.506 146.067L95.3224 146.727C95.3224 146.727 98.9967 143.877 104.171 141.253C109.345 138.628 110.62 136.754 112.12 133.679C113.619 130.605 115.494 124.756 115.569 124.231C115.644 123.706 117.144 122.356 117.369 119.131C117.594 115.907 117.594 115.907 117.594 115.907L123.352 110.752L122.878 110.347Z" fill="black"/>
</g>
<path d="M109.495 94.6852C108.548 94.6852 107.378 94.7728 106.277 94.8862C105.214 96.374 104.77 97.3099 104.77 97.3099C104.77 97.3099 91.1975 99.6346 86.9978 103.234C86.9978 103.234 80.7737 104.884 78.149 107.359C75.5244 109.833 74.3248 114.408 74.3248 114.408C74.3248 114.408 72.4571 115.996 70.8041 117.208C72.1045 117.115 74.2866 117.169 75.4496 118.382C76.625 119.609 76.5462 121.774 76.377 123.03C78.4127 121.706 81.7485 119.507 81.7485 119.507C81.7485 119.507 86.8479 123.031 92.6218 124.006C98.3957 124.981 104.77 123.931 104.77 123.931L104.48 124.825C105.561 124.016 107.899 122.83 111.294 124.157C113.16 124.886 114.094 126.171 114.537 127.535C115.119 125.836 115.533 124.472 115.568 124.231C115.643 123.706 117.143 122.357 117.368 119.132C117.593 115.908 117.593 115.908 117.593 115.908L124.227 109.968C124.368 108.527 124.186 106.306 122.842 103.235C120.218 97.2347 111.819 94.6852 109.495 94.6852Z" stroke="#263238" stroke-miterlimit="10" stroke-linecap="round" stroke-linejoin="round"/>
<path d="M107.32 114.182C107.32 114.182 105.071 115.532 104.321 118.457C103.571 121.381 104.396 123.106 104.396 123.106" stroke="#263238" stroke-miterlimit="10" stroke-linecap="round" stroke-linejoin="round"/>
<path d="M84.072 102.091C84.072 102.091 80.706 103.606 79.5282 102.933C78.3499 102.259 78.5184 99.3982 79.9491 97.7995C81.3794 96.2007 84.1564 96.0323 83.231 95.7798C82.3052 95.5274 80.5384 95.0225 82.4736 93.5077C84.4089 91.993 90.0469 90.6467 94.6751 91.993C99.3034 93.3393 100.986 95.8638 101.323 97.0417C101.659 98.22 101.659 98.6405 101.659 98.6405C101.659 98.6405 103.679 97.7991 104.015 98.472C104.352 99.1454 103.847 99.5659 103.847 99.5659C103.847 99.5659 104.604 100.323 104.773 102.09C104.941 103.858 103.763 105.456 103.09 106.13C102.416 106.803 101.407 106.971 100.229 105.961C99.0505 104.951 98.3776 101.501 97.6202 101.501C96.8628 101.501 93.6653 101.67 93.5813 101.081C93.4973 100.492 93.4973 100.492 93.4973 100.492L84.9142 102.679L84.072 102.091Z" fill="#263238" stroke="#263238" stroke-miterlimit="10" stroke-linecap="round" stroke-linejoin="round"/>
<path d="M101.621 109.458C101.621 109.458 102.221 116.657 100.196 120.256C98.1713 123.856 94.497 121.306 93.6721 120.482C92.8472 119.657 97.4963 116.207 98.5464 113.508C99.5964 110.808 101.246 107.958 101.621 109.458Z" fill="white"/>
<mask id="mask10_344_58" style="mask-type:luminance" maskUnits="userSpaceOnUse" x="93" y="109" width="9" height="14">
<path d="M101.621 109.458C101.621 109.458 102.221 116.657 100.196 120.256C98.1713 123.856 94.497 121.306 93.6721 120.482C92.8472 119.657 97.4963 116.207 98.5464 113.508C99.5964 110.808 101.246 107.958 101.621 109.458Z" fill="white"/>
</mask>
<g mask="url(#mask10_344_58)">
<path opacity="0.2" d="M101.621 109.458C101.621 109.458 102.221 116.657 100.196 120.256C98.1713 123.856 94.497 121.306 93.6721 120.482C92.8472 119.657 97.4963 116.207 98.5464 113.508C99.5964 110.808 101.246 107.958 101.621 109.458Z" fill="black"/>
</g>
<path d="M101.621 109.458C101.621 109.458 102.221 116.657 100.196 120.256C98.1713 123.856 94.497 121.306 93.6721 120.482C92.8472 119.657 97.4963 116.207 98.5464 113.508C99.5964 110.808 101.246 107.958 101.621 109.458Z" stroke="#263238" stroke-miterlimit="10" stroke-linecap="round" stroke-linejoin="round"/>
<path d="M84.072 102.091C84.072 102.091 84.2405 107.813 86.4281 113.788C88.6158 119.762 92.3187 121.782 93.9174 121.866C95.5162 121.95 98.5456 118.921 99.8919 116.06C101.238 113.199 102.164 109.917 102.164 109.917C102.164 109.917 104.099 109.244 104.604 107.477C105.109 105.71 105.025 104.111 103.679 103.942C102.332 103.774 101.744 105.71 101.744 105.71C101.744 105.71 100.061 104.616 99.3874 102.428C98.7141 100.24 100.061 98.5568 99.3874 98.9777C98.7141 99.3986 97.3678 100.745 96.6948 100.492C96.0219 100.24 97.1157 98.3048 97.1157 98.3048C97.1157 98.3048 86.1757 101.166 84.072 102.091Z" fill="white" stroke="#263238" stroke-miterlimit="10" stroke-linecap="round" stroke-linejoin="round"/>
<path d="M98.3772 106.551L102.08 105.121" stroke="#263238" stroke-miterlimit="10" stroke-linecap="round" stroke-linejoin="round"/>
<path d="M89.6261 106.972L82.2208 105.626C82.2208 105.626 82.3048 107.982 83.4831 109.328C84.661 110.674 87.1015 110.843 88.0269 110.506C88.9527 110.17 88.7843 107.561 89.7941 107.814C90.8039 108.066 90.6355 109.16 91.0564 110.17C91.4773 111.18 91.8978 111.095 93.749 111.348C95.6002 111.601 97.3674 111.432 98.0403 110.507C98.7137 109.581 99.0502 106.72 98.3768 106.552C97.7035 106.383 95.4318 106.72 92.9912 106.804C90.5515 106.888 89.6261 106.972 89.6261 106.972Z" fill="white"/>
<mask id="mask11_344_58" style="mask-type:luminance" maskUnits="userSpaceOnUse" x="82" y="105" width="17" height="7">
<path d="M89.6261 106.972L82.2208 105.626C82.2208 105.626 82.3048 107.982 83.4831 109.328C84.661 110.674 87.1015 110.843 88.0269 110.506C88.9527 110.17 88.7843 107.561 89.7941 107.814C90.8039 108.066 90.6355 109.16 91.0564 110.17C91.4773 111.18 91.8978 111.095 93.749 111.348C95.6002 111.601 97.3674 111.432 98.0403 110.507C98.7137 109.581 99.0502 106.72 98.3768 106.552C97.7035 106.383 95.4318 106.72 92.9912 106.804C90.5515 106.888 89.6261 106.972 89.6261 106.972Z" fill="white"/>
</mask>
<g mask="url(#mask11_344_58)">
<path d="M93.749 111.348C95.6002 111.6 97.3674 111.432 98.0403 110.506C98.528 109.836 98.8367 108.154 98.7153 107.212L91.4624 110.809C91.8467 111.157 92.4397 111.169 93.749 111.348Z" fill="#C6FF00"/>
<path d="M88.0269 110.506C88.9527 110.17 88.7843 107.561 89.7941 107.814C90.3971 107.964 90.5796 108.416 90.7187 108.969L93.2698 106.793C93.1773 106.797 93.0849 106.801 92.9916 106.804C92.2668 106.829 91.6787 106.854 91.2055 106.877L83.8815 109.7C85.1446 110.7 87.1956 110.809 88.0269 110.506Z" fill="#C6FF00"/>
</g>
<path d="M89.6261 106.972L82.2208 105.626C82.2208 105.626 82.3048 107.982 83.4831 109.328C84.661 110.674 87.1015 110.843 88.0269 110.506C88.9527 110.17 88.7843 107.561 89.7941 107.814C90.8039 108.066 90.6355 109.16 91.0564 110.17C91.4773 111.18 91.8978 111.095 93.749 111.348C95.6002 111.601 97.3674 111.432 98.0403 110.507C98.7137 109.581 99.0502 106.72 98.3768 106.552C97.7035 106.383 95.4318 106.72 92.9912 106.804C90.5515 106.888 89.6261 106.972 89.6261 106.972Z" stroke="#263238" stroke-miterlimit="10" stroke-linecap="round" stroke-linejoin="round"/>
<path d="M89.1211 109.665C89.1211 109.665 89.0371 111.852 89.0371 113.199C89.0371 114.545 89.542 114.545 90.4678 114.461C91.3936 114.377 91.8985 113.956 91.8985 113.956" stroke="#263238" stroke-miterlimit="10" stroke-linecap="round" stroke-linejoin="round"/>
<path d="M92.0662 116.817C92.0662 116.817 93.8334 114.461 95.6006 114.714C97.3678 114.966 97.3678 116.565 96.442 117.154C95.5162 117.743 93.1601 118.08 92.5711 117.911C91.9822 117.743 91.7297 117.154 92.0662 116.817Z" stroke="#263238" stroke-miterlimit="10" stroke-linecap="round" stroke-linejoin="round"/>
<path d="M96.526 115.303C96.526 115.303 94.3384 117.154 92.1503 117.238" stroke="#263238" stroke-miterlimit="10" stroke-linecap="round" stroke-linejoin="round"/>
<path d="M90.0465 105.036C90.0465 105.036 91.1404 106.215 91.5612 105.878C91.9821 105.541 93.4965 104.026 95.2637 103.858C97.0309 103.69 97.2833 104.026 97.0309 103.69C96.7784 103.353 95.6001 102.764 94.1698 102.932C92.7395 103.101 91.7297 104.531 91.2248 104.783C90.7199 105.036 90.0465 105.036 90.0465 105.036Z" fill="#263238" stroke="#263238" stroke-miterlimit="10" stroke-linecap="round" stroke-linejoin="round"/>
<path d="M88.1113 104.7C88.1113 104.7 87.9429 105.373 87.6904 105.457C87.438 105.541 87.354 105.541 85.9232 105.121C84.4925 104.7 84.072 104.616 84.072 104.616C84.072 104.616 83.988 103.943 84.9974 103.858C86.0073 103.774 87.2695 104.532 87.2695 104.532C87.2695 104.532 87.8589 104.952 88.1113 104.7Z" fill="#263238" stroke="#263238" stroke-miterlimit="10" stroke-linecap="round" stroke-linejoin="round"/>
<path d="M97.9567 93.3401C97.9567 93.3401 101.743 94.9388 102.08 101.25L102.837 101.166C102.837 101.166 102.921 98.2208 101.659 95.5278C100.397 92.8352 97.9567 93.3401 97.9567 93.3401Z" fill="white" stroke="#263238" stroke-miterlimit="10" stroke-linecap="round" stroke-linejoin="round"/>
<path d="M101.259 103.893C100.767 103.893 100.305 103.587 100.129 103.097C99.9059 102.474 100.231 101.787 100.855 101.564L104.395 100.297C105.019 100.072 105.705 100.398 105.929 101.022C106.152 101.646 105.827 102.332 105.203 102.556L101.663 103.823C101.53 103.87 101.393 103.893 101.259 103.893Z" fill="white" stroke="#263238" stroke-miterlimit="10"/>
<path d="M101.621 102.543C101.817 103.063 101.662 103.602 101.277 103.747C100.891 103.891 100.42 103.587 100.226 103.066C100.03 102.546 100.185 102.007 100.57 101.862C100.956 101.718 101.426 102.022 101.621 102.543Z" fill="white" stroke="#263238" stroke-miterlimit="10" stroke-linecap="round" stroke-linejoin="round"/>
<path d="M101.199 109.24C101.199 109.683 100.839 110.043 100.395 110.043C99.9513 110.043 99.5916 109.683 99.5916 109.24C99.5916 108.796 100.395 107.017 100.395 107.017C100.395 107.017 101.199 108.796 101.199 109.24Z" stroke="#263238" stroke-miterlimit="10" stroke-linecap="round" stroke-linejoin="round"/>
<path d="M144.064 51.2671C143.165 52.242 143.765 54.3416 143.165 57.4161C142.565 60.4906 138.816 71.589 136.941 76.838C135.066 82.0873 135.666 89.2111 135.666 89.2111C135.666 89.2111 133.116 90.1108 131.317 91.4607C129.517 92.8106 126.742 94.6852 126.742 94.6852L125.992 94.3105C125.992 94.3105 130.191 90.1112 131.466 87.7117C132.741 85.3121 133.116 85.1622 132.441 83.7375C131.766 82.3128 126.292 75.4137 123.893 72.3392C121.493 69.2647 118.568 64.0905 117.969 62.5907C117.369 61.0908 117.444 59.5914 117.893 58.5413C118.343 57.4913 122.543 55.3917 122.618 52.1672C122.693 48.9428 120.593 49.8425 118.643 50.5174C116.693 51.1924 111.444 56.2917 110.245 59.5162C109.045 62.7406 110.095 63.7906 112.194 65.7403C114.294 67.69 116.843 71.6646 118.193 75.4137C119.543 79.1631 121.268 82.7626 124.042 83.7375C124.042 83.7375 119.618 85.8371 116.693 87.9368C113.769 90.0364 112.344 91.0113 112.344 91.0113C112.344 91.0113 108.37 92.1361 106.87 94.0858C105.973 95.252 105.404 96.1685 105.087 96.7237C106.799 96.0978 110.949 95.135 115.794 97.9852C121.801 101.519 123.078 107.382 123.08 110.996L125.467 108.858C125.467 108.858 131.691 106.384 136.865 100.685C142.04 94.9854 142.865 92.2108 143.39 87.1115C143.915 82.0121 146.014 61.8405 146.089 61.5402C146.164 61.2404 146.839 59.7405 147.739 59.5906C148.638 59.4406 153.588 63.7898 154.263 64.2397C154.938 64.6895 156.287 64.9146 156.438 63.49C156.588 62.0653 155.388 58.5405 151.563 54.7163C147.739 50.8921 144.964 50.2923 144.064 51.2671Z" fill="#263238" stroke="#263238" stroke-miterlimit="10" stroke-linecap="round" stroke-linejoin="round"/>
<path d="M118.118 91.6107C118.118 91.6107 126.067 92.6607 130.266 99.1096" stroke="white" stroke-miterlimit="10" stroke-linecap="round" stroke-linejoin="round"/>
<path d="M156.438 63.49C156.588 62.0653 155.388 58.5406 151.563 54.7163C147.739 50.8917 144.965 50.2919 144.064 51.2668C143.165 52.2416 143.765 54.3413 143.165 57.4158C143.084 57.8274 142.946 58.3866 142.765 59.0527C143.341 58.9574 144.221 58.9972 145.264 59.6654C145.765 59.9862 146.156 60.3604 146.465 60.7367C146.762 60.233 147.209 59.6786 147.739 59.5906C148.638 59.4406 153.588 63.7899 154.263 64.2397C154.938 64.6896 156.287 64.9147 156.438 63.49Z" fill="#263238" stroke="#263238" stroke-miterlimit="10" stroke-linecap="round" stroke-linejoin="round"/>
<path d="M112.194 65.7396C112.61 66.1255 113.043 66.593 113.481 67.1196C115.041 67.102 117.199 66.5516 118.676 64.0584C118.35 63.4345 118.1 62.92 117.968 62.5899C117.368 61.09 117.443 59.5906 117.893 58.5406C118.343 57.4905 122.542 55.3909 122.617 52.1665C122.692 48.942 120.592 49.8417 118.643 50.5166C116.693 51.1916 111.444 56.291 110.244 59.5154C109.045 62.7399 110.095 63.7899 112.194 65.7396Z" fill="#263238" stroke="#263238" stroke-miterlimit="10" stroke-linecap="round" stroke-linejoin="round"/>
<path d="M118.643 50.5171C116.693 51.192 111.444 56.2914 110.245 59.5158C109.303 62.046 109.751 63.2379 111 64.5758C111.45 64.462 111.981 64.2317 112.569 63.7903C114.369 62.4404 115.119 60.0408 116.244 59.2159C116.884 58.7464 118.034 58.0095 119.197 57.2268C120.588 56.0498 122.567 54.3718 122.618 52.1669C122.693 48.942 120.593 49.8421 118.643 50.5171Z" fill="white" stroke="#263238" stroke-miterlimit="10" stroke-linecap="round" stroke-linejoin="round"/>
<path d="M118.643 50.517C116.693 51.192 111.444 56.2914 110.245 59.5158C109.575 61.3152 109.607 62.4368 110.13 63.416C110.773 63.5475 111.548 63.449 112.419 62.8154C114.894 61.0157 113.994 59.1412 116.169 58.0911C117.934 57.2389 120.491 55.5955 122.233 53.7632C122.459 53.2651 122.604 52.7345 122.618 52.1673C122.693 48.942 120.593 49.8421 118.643 50.517Z" fill="white" stroke="#263238" stroke-miterlimit="10" stroke-linecap="round" stroke-linejoin="round"/>
<path d="M156.438 63.49C156.588 62.0653 155.388 58.5406 151.563 54.7163C147.739 50.8917 144.965 50.2919 144.064 51.2668C143.804 51.5486 143.672 51.9273 143.597 52.3932C144.303 52.1423 145.494 51.9739 147.064 52.6915C149.689 53.8914 154.488 59.8905 155.238 61.5399C155.675 62.5015 155.552 63.6902 155.447 64.5758C155.929 64.542 156.357 64.2554 156.438 63.49Z" fill="white" stroke="#263238" stroke-miterlimit="10" stroke-linecap="round" stroke-linejoin="round"/>
<path d="M126.463 105.533L122.955 108.391C122.884 108.449 122.845 108.537 122.848 108.628L122.97 111.732C122.98 111.97 123.256 112.096 123.442 111.946L127.073 109.029C127.147 108.969 127.188 108.875 127.18 108.78L126.936 105.735C126.918 105.501 126.645 105.385 126.463 105.533Z" fill="#263238" stroke="#263238" stroke-miterlimit="10" stroke-linecap="round" stroke-linejoin="round"/>
<path d="M124.867 73.6731C124.76 58.6009 124.76 43.7269 124.867 29" stroke="white" stroke-miterlimit="10" stroke-linecap="round" stroke-linejoin="round"/>
<path d="M124.867 106.758V73.673" stroke="white" stroke-miterlimit="10" stroke-linecap="round" stroke-linejoin="round"/>
<path d="M102.971 97.6097C103.052 74.6809 103.052 51.7669 102.971 29.0149" stroke="white" stroke-miterlimit="10" stroke-linecap="round" stroke-linejoin="round"/>
<path d="M99.3702 137.563C97.6299 136.634 96.6695 136.438 96.171 136.431C95.5202 137.572 94.7789 138.843 94.0935 140.009C95.3305 140.212 97.1805 140.673 98.3217 141.692C99.0839 142.373 99.6174 143.04 99.984 143.59C100.938 143.009 102.007 142.392 103.169 141.774C102.523 140.524 101.277 138.58 99.3702 137.563Z" fill="#263238" stroke="#263238" stroke-miterlimit="10" stroke-linecap="round" stroke-linejoin="round"/>
<path d="M99.7894 135.137L93.9033 142.222L97.5004 144.511L104.476 137.535L99.7894 135.137Z" fill="#263238" stroke="#263238" stroke-miterlimit="10" stroke-linecap="round" stroke-linejoin="round"/>
<path d="M100.117 136.372L95.6838 141.604L97.4277 142.622L102.515 137.462L100.117 136.372Z" fill="white" stroke="#263238" stroke-miterlimit="10" stroke-linecap="round" stroke-linejoin="round"/>
<path d="M61.0571 143.765C61.0989 141.916 60.241 139.208 60.0497 138.622C59.5769 137.172 58.5309 136.574 57.706 137.326C57.0443 137.93 57.4439 139.296 57.5987 140.027C57.8737 141.328 58.0775 142.646 58.5321 143.902C58.7142 144.405 58.9305 145.369 59.5576 145.501C60.6571 145.734 61.031 144.915 61.0571 143.765Z" fill="white" stroke="#263238" stroke-miterlimit="10" stroke-linecap="round" stroke-linejoin="round"/>
<path d="M58.7529 145.307C58.7843 143.919 58.1402 141.885 57.9963 141.445C57.6414 140.356 56.8559 139.907 56.2364 140.472C55.7395 140.925 56.0398 141.951 56.156 142.5C56.3626 143.477 56.5154 144.467 56.8571 145.411C56.9937 145.789 57.1562 146.512 57.6273 146.611C58.4526 146.785 58.7332 146.171 58.7529 145.307Z" fill="white" stroke="#263238" stroke-miterlimit="10" stroke-linecap="round" stroke-linejoin="round"/>
<path d="M65.6106 139.201C65.6106 139.201 67.315 141.299 68.757 141.495C70.1994 141.692 70.9202 142.413 71.3793 143.134C71.8379 143.855 70.3304 146.281 70.2649 147.133C70.1994 147.985 69.6093 148.116 68.8229 147.658C68.0362 147.198 67.7741 145.953 68.0362 145.035C68.2983 144.118 68.4294 143.855 68.2328 143.79C68.0362 143.724 66.3317 143.265 65.8731 143.003C65.414 142.741 65.6106 139.201 65.6106 139.201Z" fill="white" stroke="#263238" stroke-miterlimit="10" stroke-linecap="round" stroke-linejoin="round"/>
<path d="M63.7015 143.186C63.7433 141.337 62.8854 138.629 62.6941 138.043C62.2213 136.593 61.1753 135.995 60.3504 136.747C59.6887 137.351 60.0883 138.717 60.2431 139.449C60.5181 140.75 60.7219 142.068 61.1765 143.324C61.3586 143.827 61.5749 144.79 62.202 144.923C63.3015 145.154 63.6754 144.337 63.7015 143.186Z" fill="white" stroke="#263238" stroke-miterlimit="10" stroke-linecap="round" stroke-linejoin="round"/>
<path d="M66.8447 143.925C66.8865 142.076 66.0286 139.368 65.8373 138.782C65.3645 137.332 64.3185 136.734 63.4936 137.486C62.8319 138.09 63.2315 139.456 63.3863 140.188C63.6613 141.489 63.8651 142.807 64.3197 144.063C64.5018 144.566 64.7181 145.53 65.3452 145.662C66.4447 145.893 66.8186 145.075 66.8447 143.925Z" fill="white" stroke="#263238" stroke-miterlimit="10" stroke-linecap="round" stroke-linejoin="round"/>
<path d="M91.6128 152.362C92.18 150.316 93.9681 147.784 94.3612 147.238C95.3325 145.89 96.6205 145.762 97.2323 147.002C97.7227 147.997 96.8548 149.291 96.4524 150.014C95.7361 151.3 95.0884 152.641 94.1996 153.787C93.8435 154.246 93.2999 155.192 92.6025 155.02C91.3796 154.719 91.2598 153.635 91.6128 152.362Z" fill="white" stroke="#263238" stroke-miterlimit="10" stroke-linecap="round" stroke-linejoin="round"/>
<path d="M94.663 153.645C95.0887 152.109 96.4314 150.207 96.7269 149.797C97.4565 148.785 98.4237 148.689 98.8828 149.62C99.251 150.367 98.5994 151.339 98.2971 151.882C97.7592 152.848 97.2728 153.854 96.6055 154.715C96.3382 155.06 95.9301 155.77 95.4063 155.641C94.4882 155.415 94.3981 154.601 94.663 153.645Z" fill="white" stroke="#263238" stroke-miterlimit="10" stroke-linecap="round" stroke-linejoin="round"/>
<path d="M89.5303 143.499C89.5303 143.499 87.0609 144.936 85.4927 144.424C83.9245 143.912 82.9347 144.338 82.218 144.896C81.5016 145.454 82.2722 148.871 82.0592 149.837C81.8461 150.803 82.4178 151.244 83.3894 151.139C84.361 151.033 85.0456 149.802 85.0754 148.665C85.1051 147.527 85.0549 147.174 85.2816 147.201C85.5083 147.229 87.4367 147.586 88.0015 147.531C88.5664 147.475 89.5303 143.499 89.5303 143.499Z" fill="white" stroke="#263238" stroke-miterlimit="10" stroke-linecap="round" stroke-linejoin="round"/>
<path d="M90.2045 148.826C90.7713 146.78 92.5598 144.247 92.9529 143.702C93.9242 142.353 95.2122 142.226 95.824 143.465C96.3145 144.46 95.4465 145.754 95.0441 146.478C94.3278 147.764 93.6802 149.104 92.7913 150.25C92.4352 150.71 91.8917 151.655 91.1942 151.484C89.9717 151.183 89.8515 150.098 90.2045 148.826Z" fill="white" stroke="#263238" stroke-miterlimit="10" stroke-linecap="round" stroke-linejoin="round"/>
<path d="M86.6838 148.049C87.251 146.003 89.0391 143.471 89.4323 142.925C90.4035 141.576 91.6915 141.449 92.3033 142.689C92.7938 143.684 91.9263 144.978 91.5235 145.701C90.8071 146.987 90.1595 148.328 89.2707 149.474C88.9145 149.933 88.371 150.879 87.6735 150.707C86.451 150.406 86.3312 149.322 86.6838 148.049Z" fill="white" stroke="#263238" stroke-miterlimit="10" stroke-linecap="round" stroke-linejoin="round"/>
<path d="M47.0687 135.776L54.2283 155.351L92.6222 168.749L90.4228 150.051L47.0687 135.776Z" fill="#C6FF00" stroke="#263238" stroke-miterlimit="10" stroke-linecap="round" stroke-linejoin="round"/>
<path d="M133.6 124.631H145.799" stroke="white" stroke-miterlimit="10" stroke-linecap="round" stroke-linejoin="round"/>
<path d="M124.886 124.631H129.146" stroke="white" stroke-miterlimit="10" stroke-linecap="round" stroke-linejoin="round"/>
<path d="M143.67 126.856H145.799" stroke="white" stroke-miterlimit="10" stroke-linecap="round" stroke-linejoin="round"/>
<path d="M137.666 126.856H141.927" stroke="white" stroke-miterlimit="10" stroke-linecap="round" stroke-linejoin="round"/>
<path d="M124.886 126.856H134.762" stroke="white" stroke-miterlimit="10" stroke-linecap="round" stroke-linejoin="round"/>
<path d="M134.956 129.081H145.8" stroke="white" stroke-miterlimit="10" stroke-linecap="round" stroke-linejoin="round"/>
<path d="M124.886 129.081H132.632" stroke="white" stroke-miterlimit="10" stroke-linecap="round" stroke-linejoin="round"/>
<path d="M141.152 131.306H145.8" stroke="white" stroke-miterlimit="10" stroke-linecap="round" stroke-linejoin="round"/>
<path d="M129.533 131.306H139.216" stroke="white" stroke-miterlimit="10" stroke-linecap="round" stroke-linejoin="round"/>
<path d="M124.886 131.306H127.403" stroke="white" stroke-miterlimit="10" stroke-linecap="round" stroke-linejoin="round"/>
<path d="M133.6 133.252H145.799" stroke="white" stroke-miterlimit="10" stroke-linecap="round" stroke-linejoin="round"/>
<path d="M124.886 133.252H129.146" stroke="white" stroke-miterlimit="10" stroke-linecap="round" stroke-linejoin="round"/>
<path d="M143.67 135.477H145.799" stroke="white" stroke-miterlimit="10" stroke-linecap="round" stroke-linejoin="round"/>
<path d="M137.666 135.477H141.927" stroke="white" stroke-miterlimit="10" stroke-linecap="round" stroke-linejoin="round"/>
<path d="M124.886 135.477H134.762" stroke="white" stroke-miterlimit="10" stroke-linecap="round" stroke-linejoin="round"/>
<path d="M134.956 137.702H145.8" stroke="white" stroke-miterlimit="10" stroke-linecap="round" stroke-linejoin="round"/>
<path d="M124.886 137.702H132.632" stroke="white" stroke-miterlimit="10" stroke-linecap="round" stroke-linejoin="round"/>
<path d="M143.67 141.881H145.799" stroke="white" stroke-miterlimit="10" stroke-linecap="round" stroke-linejoin="round"/>
<path d="M137.666 141.881H141.927" stroke="white" stroke-miterlimit="10" stroke-linecap="round" stroke-linejoin="round"/>
<path d="M124.886 141.881H134.762" stroke="white" stroke-miterlimit="10" stroke-linecap="round" stroke-linejoin="round"/>
<path d="M134.956 144.106H145.8" stroke="white" stroke-miterlimit="10" stroke-linecap="round" stroke-linejoin="round"/>
<path d="M124.886 144.106H132.632" stroke="white" stroke-miterlimit="10" stroke-linecap="round" stroke-linejoin="round"/>
<path d="M141.152 146.331H145.8" stroke="white" stroke-miterlimit="10" stroke-linecap="round" stroke-linejoin="round"/>
<path d="M129.533 146.331H139.216" stroke="white" stroke-miterlimit="10" stroke-linecap="round" stroke-linejoin="round"/>
<path d="M124.886 146.331H127.403" stroke="white" stroke-miterlimit="10" stroke-linecap="round" stroke-linejoin="round"/>
<path d="M133.6 148.278H145.799" stroke="white" stroke-miterlimit="10" stroke-linecap="round" stroke-linejoin="round"/>
<path d="M124.886 148.278H129.146" stroke="white" stroke-miterlimit="10" stroke-linecap="round" stroke-linejoin="round"/>
<path d="M143.67 150.503H145.799" stroke="white" stroke-miterlimit="10" stroke-linecap="round" stroke-linejoin="round"/>
<path d="M137.666 150.503H141.927" stroke="white" stroke-miterlimit="10" stroke-linecap="round" stroke-linejoin="round"/>
<path d="M124.886 150.503H134.762" stroke="white" stroke-miterlimit="10" stroke-linecap="round" stroke-linejoin="round"/>
<path d="M148.343 154.561L149.913 147.495L151.483 151.944L153.577 132.84L156.455 147.495L159.858 122.11L163.521 151.42L165.092 148.542L165.877 154.299" stroke="white" stroke-miterlimit="10" stroke-linecap="round" stroke-linejoin="round"/>
<path d="M126.531 120.332L135.53 111.333L142.152 117.276L147.756 112.182L156.076 118.465L165.075 108.956" stroke="white" stroke-miterlimit="10" stroke-linecap="round" stroke-linejoin="round"/>
<path d="M136.719 111.333C136.719 110.677 136.186 110.144 135.53 110.144C134.873 110.144 134.341 110.677 134.341 111.333C134.341 111.99 134.873 112.522 135.53 112.522C136.186 112.522 136.719 111.99 136.719 111.333Z" fill="#C6FF00" stroke="white" stroke-miterlimit="10" stroke-linecap="round" stroke-linejoin="round"/>
<path d="M148.944 112.182C148.944 111.526 148.412 110.993 147.755 110.993C147.099 110.993 146.566 111.526 146.566 112.182C146.566 112.839 147.099 113.371 147.755 113.371C148.412 113.371 148.944 112.839 148.944 112.182Z" fill="#C6FF00" stroke="white" stroke-miterlimit="10" stroke-linecap="round" stroke-linejoin="round"/>
<path d="M156.076 119.653C156.732 119.653 157.265 119.121 157.265 118.465C157.265 117.808 156.732 117.276 156.076 117.276C155.419 117.276 154.887 117.808 154.887 118.465C154.887 119.121 155.419 119.653 156.076 119.653Z" fill="#C6FF00" stroke="white" stroke-miterlimit="10" stroke-linecap="round" stroke-linejoin="round"/>
<path d="M166.094 108.956C166.094 108.3 165.561 107.767 164.905 107.767C164.248 107.767 163.716 108.3 163.716 108.956C163.716 109.613 164.248 110.145 164.905 110.145C165.561 110.144 166.094 109.613 166.094 108.956Z" fill="#C6FF00" stroke="white" stroke-miterlimit="10" stroke-linecap="round" stroke-linejoin="round"/>
<path d="M126.531 121.521C127.187 121.521 127.719 120.989 127.719 120.332C127.719 119.676 127.187 119.144 126.531 119.144C125.874 119.144 125.342 119.676 125.342 120.332C125.342 120.989 125.874 121.521 126.531 121.521Z" fill="#C6FF00" stroke="white" stroke-miterlimit="10" stroke-linecap="round" stroke-linejoin="round"/>
<path d="M142.152 118.125C142.809 118.125 143.341 117.593 143.341 116.937C143.341 116.28 142.809 115.748 142.152 115.748C141.496 115.748 140.963 116.28 140.963 116.937C140.963 117.593 141.496 118.125 142.152 118.125Z" fill="#C6FF00" stroke="white" stroke-miterlimit="10" stroke-linecap="round" stroke-linejoin="round"/>
<path d="M62.0553 81.4775L65.5507 79.4594" stroke="white" stroke-miterlimit="10" stroke-linecap="round" stroke-linejoin="round"/>
<path d="M45 79.4594V91.3244L55.2751 97.2572L65.5506 91.3244V79.4594L55.2751 73.5267L45 79.4594Z" stroke="white" stroke-miterlimit="10" stroke-linecap="round" stroke-linejoin="round"/>
<path d="M48.4954 81.4775V89.3064L55.2751 93.2207L62.0552 89.3064V81.4775L55.2751 77.5632L48.4954 81.4775Z" stroke="white" stroke-miterlimit="10" stroke-linecap="round" stroke-linejoin="round"/>
<path d="M55.2751 73.5267V64.7128" stroke="white" stroke-miterlimit="10" stroke-linecap="round" stroke-linejoin="round"/>
<path d="M55.2751 66.0101C56.2327 66.0101 57.0089 65.2338 57.0089 64.2763C57.0089 63.3187 56.2327 62.5424 55.2751 62.5424C54.3175 62.5424 53.5413 63.3187 53.5413 64.2763C53.5413 65.2338 54.3175 66.0101 55.2751 66.0101Z" fill="#C6FF00" stroke="white" stroke-miterlimit="10" stroke-linecap="round" stroke-linejoin="round"/>
<path d="M55.2751 97.0059V105.82" stroke="white" stroke-miterlimit="10" stroke-linecap="round" stroke-linejoin="round"/>
<path d="M53.5417 106.257C53.5417 107.214 54.318 107.99 55.2756 107.99C56.2331 107.99 57.0094 107.214 57.0094 106.257C57.0094 105.299 56.2331 104.523 55.2756 104.523C54.318 104.523 53.5417 105.299 53.5417 106.257Z" fill="#C6FF00" stroke="white" stroke-miterlimit="10" stroke-linecap="round" stroke-linejoin="round"/>
<path d="M48.4954 81.4775L45 79.4594" stroke="white" stroke-miterlimit="10" stroke-linecap="round" stroke-linejoin="round"/>
<path d="M48.7904 89.3651L55.5701 85.4504L62.0552 89.3064" stroke="white" stroke-miterlimit="10" stroke-linecap="round" stroke-linejoin="round"/>
<path d="M55.5702 85.4504V77.5632" stroke="white" stroke-miterlimit="10" stroke-linecap="round" stroke-linejoin="round"/>
<path d="M76.3905 47.0269H81.038" stroke="white" stroke-miterlimit="10" stroke-linecap="round" stroke-linejoin="round"/>
<path d="M64.7716 47.0269H74.4542" stroke="white" stroke-miterlimit="10" stroke-linecap="round" stroke-linejoin="round"/>
<path d="M60.124 47.0269H62.6417" stroke="white" stroke-miterlimit="10" stroke-linecap="round" stroke-linejoin="round"/>
<path d="M68.8381 48.9737H81.038" stroke="white" stroke-miterlimit="10" stroke-linecap="round" stroke-linejoin="round"/>
<path d="M60.124 48.9737H64.3844" stroke="white" stroke-miterlimit="10" stroke-linecap="round" stroke-linejoin="round"/>
<path d="M78.9078 51.1988H81.038" stroke="white" stroke-miterlimit="10" stroke-linecap="round" stroke-linejoin="round"/>
<path d="M72.9048 51.1988H77.1652" stroke="white" stroke-miterlimit="10" stroke-linecap="round" stroke-linejoin="round"/>
<path d="M60.124 51.1988H70.0004" stroke="white" stroke-miterlimit="10" stroke-linecap="round" stroke-linejoin="round"/>
<path d="M70.1937 53.4235H81.0381" stroke="white" stroke-miterlimit="10" stroke-linecap="round" stroke-linejoin="round"/>
<path d="M60.124 53.4235H67.8702" stroke="white" stroke-miterlimit="10" stroke-linecap="round" stroke-linejoin="round"/>
<path d="M76.3905 55.6485H81.038" stroke="white" stroke-miterlimit="10" stroke-linecap="round" stroke-linejoin="round"/>
<path d="M64.7716 55.6485H74.4542" stroke="white" stroke-miterlimit="10" stroke-linecap="round" stroke-linejoin="round"/>
<path d="M60.124 55.6485H62.6417" stroke="white" stroke-miterlimit="10" stroke-linecap="round" stroke-linejoin="round"/>
<path d="M68.8381 57.5954H81.038" stroke="white" stroke-miterlimit="10" stroke-linecap="round" stroke-linejoin="round"/>
<path d="M60.124 57.5954H64.3844" stroke="white" stroke-miterlimit="10" stroke-linecap="round" stroke-linejoin="round"/>
<path d="M78.9078 59.8205H81.038" stroke="white" stroke-miterlimit="10" stroke-linecap="round" stroke-linejoin="round"/>
<path d="M72.9048 59.8205H77.1652" stroke="white" stroke-miterlimit="10" stroke-linecap="round" stroke-linejoin="round"/>
<path d="M60.124 59.8205H70.0004" stroke="white" stroke-miterlimit="10" stroke-linecap="round" stroke-linejoin="round"/>
<path d="M70.1937 62.0452H81.0381" stroke="white" stroke-miterlimit="10" stroke-linecap="round" stroke-linejoin="round"/>
<path d="M60.124 62.0452H67.8702" stroke="white" stroke-miterlimit="10" stroke-linecap="round" stroke-linejoin="round"/>
<path d="M76.3905 64.2702H81.038" stroke="white" stroke-miterlimit="10" stroke-linecap="round" stroke-linejoin="round"/>
<path d="M64.7716 64.2702H74.4542" stroke="white" stroke-miterlimit="10" stroke-linecap="round" stroke-linejoin="round"/>
<path d="M60.124 64.2702H62.6417" stroke="white" stroke-miterlimit="10" stroke-linecap="round" stroke-linejoin="round"/>
<path d="M68.8381 66.2171H81.038" stroke="white" stroke-miterlimit="10" stroke-linecap="round" stroke-linejoin="round"/>
<path d="M60.124 66.2171H64.3844" stroke="white" stroke-miterlimit="10" stroke-linecap="round" stroke-linejoin="round"/>
<path d="M81.038 68.4422H78.9078" stroke="white" stroke-miterlimit="10" stroke-linecap="round" stroke-linejoin="round"/>
<path d="M72.9048 68.4422H77.1652" stroke="white" stroke-miterlimit="10" stroke-linecap="round" stroke-linejoin="round"/>
<path d="M60.124 68.4422H70.0004" stroke="white" stroke-miterlimit="10" stroke-linecap="round" stroke-linejoin="round"/>
<path d="M70.1937 70.6669H81.0381" stroke="white" stroke-miterlimit="10" stroke-linecap="round" stroke-linejoin="round"/>
<path d="M60.124 70.6669H67.8702" stroke="white" stroke-miterlimit="10" stroke-linecap="round" stroke-linejoin="round"/>
<path d="M76.3905 72.8919H81.038" stroke="white" stroke-miterlimit="10" stroke-linecap="round" stroke-linejoin="round"/>
<path d="M64.7716 72.8919H74.4542" stroke="white" stroke-miterlimit="10" stroke-linecap="round" stroke-linejoin="round"/>
<path d="M60.124 72.8919H62.6417" stroke="white" stroke-miterlimit="10" stroke-linecap="round" stroke-linejoin="round"/>
</svg>
